<?xml version="1.0" encoding="UTF-8"?>
<svg width="428px" height="125px" viewBox="0 0 428 125" version="1.1" xmlns="http://www.w3.org/2000/svg" xmlns:xlink="http://www.w3.org/1999/xlink">
    <title>wordmark copy 3</title>
    <g id="wordmark-copy-3" stroke="none" stroke-width="1" fill="none" fill-rule="evenodd">
        <path d="M47.02,61.4 C58.6,61.4 66.04,52.28 66.04,40.7 C66.04,29.12 58.6,20 47.02,20 C35.38,20 28,29.12 28,40.7 C28,52.28 35.38,61.4 47.02,61.4 Z M47.02,59.6 C36.64,59.6 30.1,51.56 30.1,40.7 C30.1,29.72 36.64,21.8 47.02,21.8 C57.28,21.8 63.94,29.72 63.94,40.7 C63.94,51.56 57.28,59.6 47.02,59.6 Z M80.317931,60.8 C80.857931,60.8 81.277931,60.32 81.277931,59.84 L81.277931,43.34 L93.217931,43.34 C100.537931,43.34 104.917931,38.12 104.917931,32 C104.917931,25.88 100.657931,20.66 93.217931,20.66 L80.437931,20.66 C79.777931,20.66 79.357931,21.08 79.357931,21.74 L79.357931,59.84 C79.357931,60.32 79.777931,60.8 80.317931,60.8 Z M93.157931,41.54 L81.277931,41.54 L81.277931,22.46 L93.157931,22.46 C99.037931,22.46 102.817931,26.48 102.817931,32 C102.817931,37.52 99.037931,41.54 93.157931,41.54 Z M140.495862,60.68 C140.975862,60.68 141.395862,60.26 141.395862,59.78 C141.395862,59.3 140.975862,58.88 140.495862,58.88 L118.715862,58.88 L118.715862,41 L140.075862,41 C140.555862,41 140.975862,40.58 140.975862,40.1 C140.975862,39.62 140.555862,39.2 140.075862,39.2 L118.715862,39.2 L118.715862,22.46 L140.495862,22.46 C140.975862,22.46 141.395862,22.04 141.395862,21.56 C141.395862,21.08 140.975862,20.66 140.495862,20.66 L117.875862,20.66 C117.215862,20.66 116.795862,21.08 116.795862,21.74 L116.795862,59.6 C116.795862,60.26 117.215862,60.68 117.875862,60.68 L140.495862,60.68 Z M184.053793,60.8 C184.713793,60.8 185.253793,60.2 185.253793,59.54 L185.253793,21.5 C185.253793,21.02 184.833793,20.54 184.293793,20.54 C183.753793,20.54 183.333793,21.02 183.333793,21.5 L183.333793,57.2 L156.633793,21.08 C156.453793,20.78 156.033793,20.54 155.613793,20.54 C154.953793,20.54 154.413793,21.14 154.413793,21.8 L154.413793,59.84 C154.413793,60.32 154.833793,60.8 155.373793,60.8 C155.913793,60.8 156.333793,60.32 156.333793,59.84 L156.333793,23.78 L183.033793,60.26 C183.213793,60.56 183.633793,60.8 184.053793,60.8 Z M231.149655,60.8 C231.689655,60.8 232.109655,60.32 232.109655,59.84 L232.109655,22.46 L244.889655,22.46 C245.369655,22.46 245.789655,22.04 245.789655,21.56 C245.789655,21.08 245.369655,20.66 244.889655,20.66 L217.469655,20.66 C216.989655,20.66 216.569655,21.08 216.569655,21.56 C216.569655,22.04 216.989655,22.46 217.469655,22.46 L230.189655,22.46 L230.189655,59.84 C230.189655,60.32 230.609655,60.8 231.149655,60.8 Z M281.067586,60.68 C281.547586,60.68 281.967586,60.26 281.967586,59.78 C281.967586,59.3 281.547586,58.88 281.067586,58.88 L259.287586,58.88 L259.287586,41 L280.647586,41 C281.127586,41 281.547586,40.58 281.547586,40.1 C281.547586,39.62 281.127586,39.2 280.647586,39.2 L259.287586,39.2 L259.287586,22.46 L281.067586,22.46 C281.547586,22.46 281.967586,22.04 281.967586,21.56 C281.967586,21.08 281.547586,20.66 281.067586,20.66 L258.447586,20.66 C257.787586,20.66 257.367586,21.08 257.367586,21.74 L257.367586,59.6 C257.367586,60.26 257.787586,60.68 258.447586,60.68 L281.067586,60.68 Z M324.505517,60.8 C325.045517,60.8 325.525517,60.32 325.525517,59.78 C325.525517,59.54 325.405517,59.36 325.285517,59.18 L309.925517,40.1 L324.325517,22.16 C324.445517,21.98 324.565517,21.8 324.565517,21.56 C324.565517,21.02 324.145517,20.54 323.545517,20.54 C323.245517,20.54 322.945517,20.72 322.765517,20.96 L308.845517,38.66 L294.925517,20.96 C294.745517,20.72 294.445517,20.54 294.145517,20.54 C293.545517,20.54 293.125517,21.02 293.125517,21.56 C293.125517,21.8 293.185517,22.04 293.305517,22.22 L307.765517,40.16 L292.405517,59.18 C292.285517,59.36 292.165517,59.6 292.165517,59.78 C292.165517,60.32 292.645517,60.8 293.185517,60.8 C293.485517,60.8 293.785517,60.62 293.965517,60.44 L308.845517,41.54 L323.725517,60.44 C323.905517,60.62 324.205517,60.8 324.505517,60.8 Z M348.863448,60.8 C349.403448,60.8 349.823448,60.32 349.823448,59.84 L349.823448,22.46 L362.603448,22.46 C363.083448,22.46 363.503448,22.04 363.503448,21.56 C363.503448,21.08 363.083448,20.66 362.603448,20.66 L335.183448,20.66 C334.703448,20.66 334.283448,21.08 334.283448,21.56 C334.283448,22.04 334.703448,22.46 335.183448,22.46 L347.903448,22.46 L347.903448,59.84 C347.903448,60.32 348.323448,60.8 348.863448,60.8 Z M386.961379,61.4 C397.761379,61.4 400.641379,55.04 400.641379,50.54 C400.641379,43.2023529 394.821782,40.9117907 388.860556,39.1354797 L388.292574,38.967717 C388.008551,38.884468 387.724615,38.8020588 387.441379,38.72 C381.741379,37.1 376.341379,35.6 376.341379,30.2 C376.341379,25.28 380.961379,21.8 386.781379,21.8 C391.041379,21.8 394.821379,23.12 397.641379,26.3 C397.821379,26.54 398.121379,26.66 398.421379,26.66 C398.961379,26.66 399.441379,26.18 399.441379,25.64 C399.441379,25.4 399.321379,25.16 399.141379,24.98 C396.261379,21.86 392.241379,20 386.781379,20 C380.181379,20 374.241379,23.72 374.241379,30.2 C374.241379,36.6246154 379.660551,38.6014201 385.355007,40.2360856 L386.210597,40.4792326 C386.400901,40.5329231 386.591225,40.5864615 386.781379,40.64 C392.721379,42.32 398.541379,44.06 398.541379,50.54 C398.541379,54.32 396.201379,59.6 386.961379,59.6 C381.681379,59.6 377.721379,57.14 375.141379,54.38 C374.961379,54.14 374.661379,54.02 374.361379,54.02 C373.821379,54.02 373.341379,54.5 373.341379,55.1 C373.341379,55.34 373.401379,55.58 373.581379,55.76 C376.581379,59.06 381.201379,61.4 386.961379,61.4 Z" id="OPENTEXTS" fill="#0080AB" fill-rule="nonzero"></path>
        <path d="M36.776,107.56 C41.456,107.56 44.552,103.96 44.552,99.28 C44.552,94.6 41.456,91 36.776,91 C32.072,91 29,94.6 29,99.28 C29,103.96 32.072,107.56 36.776,107.56 Z M36.776,106.312 C32.888,106.312 30.44,103.312 30.44,99.28 C30.44,95.2 32.888,92.248 36.776,92.248 C40.616,92.248 43.112,95.2 43.112,99.28 C43.112,103.312 40.616,106.312 36.776,106.312 Z M48.262,111.76 C48.598,111.76 48.886,111.472 48.886,111.136 L48.886,105.376 C49.822,106.72 51.262,107.56 52.918,107.56 C56.014,107.56 58.102,105.16 58.102,101.464 C58.102,97.744 56.014,95.392 52.918,95.392 C51.214,95.392 49.726,96.304 48.886,97.528 L48.886,96.232 C48.886,95.896 48.598,95.608 48.262,95.608 C47.926,95.608 47.638,95.896 47.638,96.232 L47.638,111.136 C47.638,111.472 47.926,111.76 48.262,111.76 Z M52.702,106.432 C51.094,106.432 49.558,105.424 48.886,104.32 L48.886,98.584 C49.558,97.48 51.094,96.52 52.702,96.52 C55.294,96.52 56.758,98.656 56.758,101.464 C56.758,104.272 55.294,106.432 52.702,106.432 Z M66.204,107.56 C67.932,107.56 69.252,107.008 70.404,106 C70.524,105.88 70.596,105.76 70.596,105.592 C70.596,105.28 70.38,105.064 70.092,105.064 C69.972,105.064 69.852,105.088 69.78,105.16 C68.796,106.048 67.62,106.48 66.3,106.48 C63.564,106.48 61.884,104.392 61.764,101.872 L70.716,101.872 C71.196,101.872 71.46,101.608 71.46,101.176 C71.46,98.2 69.516,95.392 65.988,95.392 C62.772,95.392 60.396,98.104 60.396,101.464 C60.396,105.04 62.82,107.56 66.204,107.56 Z M70.188,100.888 L61.764,100.888 C61.86,98.872 63.228,96.472 65.964,96.472 C68.868,96.472 70.164,98.92 70.188,100.888 Z M82.874,107.344 C83.21,107.344 83.498,107.056 83.498,106.72 L83.498,99.16 C83.498,96.544 82.202,95.392 79.85,95.392 C78.17,95.392 76.514,96.424 75.674,97.432 L75.674,96.232 C75.674,95.896 75.386,95.608 75.05,95.608 C74.714,95.608 74.426,95.896 74.426,96.232 L74.426,106.72 C74.426,107.056 74.714,107.344 75.05,107.344 C75.386,107.344 75.674,107.056 75.674,106.72 L75.674,98.512 C76.418,97.456 77.954,96.52 79.442,96.52 C81.122,96.52 82.25,97.192 82.25,99.424 L82.25,106.72 C82.25,107.056 82.538,107.344 82.874,107.344 Z M87.76,93.28 C88.288,93.28 88.72,92.848 88.72,92.32 C88.72,91.792 88.288,91.36 87.76,91.36 C87.256,91.36 86.8,91.792 86.8,92.32 C86.8,92.848 87.256,93.28 87.76,93.28 Z M87.76,107.344 C88.096,107.344 88.384,107.056 88.384,106.72 L88.384,96.232 C88.384,95.896 88.096,95.608 87.76,95.608 C87.424,95.608 87.136,95.896 87.136,96.232 L87.136,106.72 C87.136,107.056 87.424,107.344 87.76,107.344 Z M100.47,107.344 C100.806,107.344 101.094,107.056 101.094,106.72 L101.094,99.16 C101.094,96.544 99.798,95.392 97.446,95.392 C95.766,95.392 94.11,96.424 93.27,97.432 L93.27,96.232 C93.27,95.896 92.982,95.608 92.646,95.608 C92.31,95.608 92.022,95.896 92.022,96.232 L92.022,106.72 C92.022,107.056 92.31,107.344 92.646,107.344 C92.982,107.344 93.27,107.056 93.27,106.72 L93.27,98.512 C94.014,97.456 95.55,96.52 97.038,96.52 C98.718,96.52 99.846,97.192 99.846,99.424 L99.846,106.72 C99.846,107.056 100.134,107.344 100.47,107.344 Z M109.316,111.976 C112.148,111.976 114.548,110.704 114.548,107.152 L114.548,96.232 C114.548,95.896 114.26,95.608 113.924,95.608 C113.564,95.608 113.276,95.896 113.276,96.232 L113.276,97.528 C112.316,96.208 110.876,95.392 109.244,95.392 C106.172,95.392 104.06,97.792 104.06,101.464 C104.06,105.184 106.172,107.512 109.244,107.512 C110.948,107.512 112.412,106.528 113.276,105.376 L113.276,107.176 C113.276,109.84 111.428,110.896 109.316,110.896 C107.828,110.896 106.796,110.56 105.86,109.672 C105.764,109.576 105.62,109.528 105.5,109.528 C105.164,109.528 104.924,109.792 104.924,110.104 C104.924,110.296 104.996,110.464 105.14,110.56 C106.388,111.688 107.564,111.976 109.316,111.976 Z M109.46,106.384 C106.892,106.384 105.404,104.272 105.404,101.464 C105.404,98.656 106.892,96.52 109.46,96.52 C111.068,96.52 112.604,97.504 113.276,98.632 L113.276,104.272 C112.604,105.4 111.068,106.384 109.46,106.384 Z M127.776,107.56 C129.456,107.56 131.016,106.624 131.952,105.568 L131.952,106.72 C131.952,107.056 132.24,107.344 132.576,107.344 C132.912,107.344 133.2,107.056 133.2,106.72 L133.2,96.232 C133.2,95.896 132.912,95.608 132.576,95.608 C132.24,95.608 131.952,95.896 131.952,96.232 L131.952,104.512 C131.184,105.544 129.672,106.432 128.184,106.432 C126.504,106.432 125.376,105.808 125.376,103.552 L125.376,96.232 C125.376,95.896 125.088,95.608 124.752,95.608 C124.416,95.608 124.128,95.896 124.128,96.232 L124.128,103.84 C124.128,106.456 125.4,107.56 127.776,107.56 Z M137.462,111.76 C137.798,111.76 138.086,111.472 138.086,111.136 L138.086,105.376 C139.022,106.72 140.462,107.56 142.118,107.56 C145.214,107.56 147.302,105.16 147.302,101.464 C147.302,97.744 145.214,95.392 142.118,95.392 C140.414,95.392 138.926,96.304 138.086,97.528 L138.086,96.232 C138.086,95.896 137.798,95.608 137.462,95.608 C137.126,95.608 136.838,95.896 136.838,96.232 L136.838,111.136 C136.838,111.472 137.126,111.76 137.462,111.76 Z M141.902,106.432 C140.294,106.432 138.758,105.424 138.086,104.32 L138.086,98.584 C138.758,97.48 140.294,96.52 141.902,96.52 C144.494,96.52 145.958,98.656 145.958,101.464 C145.958,104.272 144.494,106.432 141.902,106.432 Z M159.666,107.56 C161.274,107.56 162.618,107.008 163.602,105.856 L163.602,106.72 C163.602,107.056 163.89,107.344 164.226,107.344 C164.562,107.344 164.85,107.056 164.85,106.72 L164.85,99.112 C164.85,96.52 162.978,95.392 160.626,95.392 C158.898,95.392 157.626,95.92 156.498,97.024 C156.378,97.12 156.306,97.264 156.306,97.432 C156.306,97.744 156.546,97.984 156.858,97.984 C157.002,97.984 157.122,97.936 157.218,97.864 C158.202,96.88 159.21,96.496 160.482,96.496 C162.21,96.496 163.602,97.432 163.602,99.16 L163.602,101.512 C162.594,100.384 161.274,99.856 159.666,99.856 C157.65,99.856 155.61,101.176 155.61,103.696 C155.61,106.192 157.674,107.56 159.666,107.56 Z M160.098,106.576 C158.178,106.576 156.93,105.352 156.93,103.72 C156.93,102.064 158.178,100.84 160.098,100.84 C161.49,100.84 162.786,101.392 163.602,102.448 L163.602,104.992 C162.786,106.048 161.49,106.576 160.098,106.576 Z M184.99,107.344 C185.35,107.344 185.638,107.128 185.734,106.792 L189.094,96.52 C189.118,96.448 189.142,96.304 189.142,96.256 C189.142,95.896 188.878,95.608 188.518,95.608 C188.23,95.608 187.99,95.776 187.918,96.064 L184.942,105.52 L181.798,96.088 C181.726,95.8 181.462,95.608 181.15,95.608 C180.838,95.608 180.55,95.8 180.478,96.088 L177.334,105.52 L174.382,96.064 C174.286,95.776 174.046,95.608 173.758,95.608 C173.398,95.608 173.134,95.896 173.134,96.232 C173.134,96.304 173.158,96.376 173.182,96.472 L176.542,106.792 C176.638,107.128 176.926,107.344 177.286,107.344 C177.622,107.344 177.934,107.128 178.03,106.792 L181.15,97.36 L184.246,106.792 C184.342,107.128 184.654,107.344 184.99,107.344 Z M196.356,107.56 C199.788,107.56 201.948,104.848 201.948,101.464 C201.948,98.08 199.788,95.392 196.356,95.392 C192.972,95.392 190.788,98.08 190.788,101.464 C190.788,104.848 192.972,107.56 196.356,107.56 Z M196.356,106.432 C193.668,106.432 192.132,104.056 192.132,101.464 C192.132,98.896 193.668,96.52 196.356,96.52 C199.092,96.52 200.604,98.896 200.604,101.464 C200.604,104.056 199.092,106.432 196.356,106.432 Z M205.538,107.344 C205.874,107.344 206.162,107.056 206.162,106.72 L206.162,98.824 C206.714,97.792 208.202,96.808 209.426,96.76 C209.882,96.736 210.17,96.448 210.17,96.136 C210.17,95.776 209.93,95.488 209.546,95.488 C209.354,95.488 209.234,95.512 208.994,95.584 C207.914,95.848 206.93,96.664 206.162,97.696 L206.162,96.232 C206.162,95.896 205.874,95.608 205.538,95.608 C205.202,95.608 204.914,95.896 204.914,96.232 L204.914,106.72 C204.914,107.056 205.202,107.344 205.538,107.344 Z M212.896,107.344 C213.232,107.344 213.52,107.056 213.52,106.72 L213.52,91.816 C213.52,91.48 213.232,91.192 212.896,91.192 C212.56,91.192 212.272,91.48 212.272,91.816 L212.272,106.72 C212.272,107.056 212.56,107.344 212.896,107.344 Z M221.67,107.56 C223.374,107.56 224.862,106.648 225.702,105.448 L225.702,106.72 C225.702,107.056 226.014,107.344 226.35,107.344 C226.686,107.344 226.974,107.056 226.974,106.72 L226.974,91.816 C226.974,91.48 226.686,91.192 226.35,91.192 C226.014,91.192 225.702,91.48 225.702,91.816 L225.702,97.528 C224.742,96.208 223.302,95.392 221.67,95.392 C218.598,95.392 216.486,97.816 216.486,101.488 C216.486,105.208 218.598,107.56 221.67,107.56 Z M221.886,106.432 C219.318,106.432 217.83,104.296 217.83,101.488 C217.83,98.68 219.318,96.52 221.886,96.52 C223.518,96.52 225.03,97.504 225.702,98.632 L225.702,104.368 C225.03,105.472 223.518,106.432 221.886,106.432 Z M241.474,107.56 C244.906,107.56 247.066,104.848 247.066,101.464 C247.066,98.08 244.906,95.392 241.474,95.392 C238.09,95.392 235.906,98.08 235.906,101.464 C235.906,104.848 238.09,107.56 241.474,107.56 Z M241.474,106.432 C238.786,106.432 237.25,104.056 237.25,101.464 C237.25,98.896 238.786,96.52 241.474,96.52 C244.21,96.52 245.722,98.896 245.722,101.464 C245.722,104.056 244.21,106.432 241.474,106.432 Z M251.064,107.344 C251.4,107.344 251.688,107.056 251.688,106.72 L251.688,96.784 L253.56,96.784 C253.848,96.784 254.136,96.544 254.136,96.232 C254.136,95.92 253.848,95.68 253.56,95.68 L251.688,95.68 L251.688,94.624 C251.688,93.016 252.384,92.104 253.704,92.104 C254.088,92.104 254.352,92.224 254.544,92.224 C254.88,92.224 255.072,92.008 255.072,91.696 C255.072,91.456 254.904,91.264 254.664,91.192 C254.328,91.072 253.968,91.024 253.584,91.024 C251.664,91.024 250.44,92.344 250.44,94.624 L250.44,95.68 L249,95.68 C248.712,95.68 248.448,95.92 248.448,96.232 C248.448,96.544 248.712,96.784 249,96.784 L250.44,96.784 L250.44,106.72 C250.44,107.056 250.728,107.344 251.064,107.344 Z M266.62,107.56 C268.324,107.56 269.812,106.648 270.652,105.448 L270.652,106.72 C270.652,107.056 270.964,107.344 271.3,107.344 C271.636,107.344 271.924,107.056 271.924,106.72 L271.924,91.816 C271.924,91.48 271.636,91.192 271.3,91.192 C270.964,91.192 270.652,91.48 270.652,91.816 L270.652,97.528 C269.692,96.208 268.252,95.392 266.62,95.392 C263.548,95.392 261.436,97.816 261.436,101.488 C261.436,105.208 263.548,107.56 266.62,107.56 Z M266.836,106.432 C264.268,106.432 262.78,104.296 262.78,101.488 C262.78,98.68 264.268,96.52 266.836,96.52 C268.468,96.52 269.98,97.504 270.652,98.632 L270.652,104.368 C269.98,105.472 268.468,106.432 266.836,106.432 Z M276.186,93.28 C276.714,93.28 277.146,92.848 277.146,92.32 C277.146,91.792 276.714,91.36 276.186,91.36 C275.682,91.36 275.226,91.792 275.226,92.32 C275.226,92.848 275.682,93.28 276.186,93.28 Z M276.186,107.344 C276.522,107.344 276.81,107.056 276.81,106.72 L276.81,96.232 C276.81,95.896 276.522,95.608 276.186,95.608 C275.85,95.608 275.562,95.896 275.562,96.232 L275.562,106.72 C275.562,107.056 275.85,107.344 276.186,107.344 Z M285.032,111.976 C287.864,111.976 290.264,110.704 290.264,107.152 L290.264,96.232 C290.264,95.896 289.976,95.608 289.64,95.608 C289.28,95.608 288.992,95.896 288.992,96.232 L288.992,97.528 C288.032,96.208 286.592,95.392 284.96,95.392 C281.888,95.392 279.776,97.792 279.776,101.464 C279.776,105.184 281.888,107.512 284.96,107.512 C286.664,107.512 288.128,106.528 288.992,105.376 L288.992,107.176 C288.992,109.84 287.144,110.896 285.032,110.896 C283.544,110.896 282.512,110.56 281.576,109.672 C281.48,109.576 281.336,109.528 281.216,109.528 C280.88,109.528 280.64,109.792 280.64,110.104 C280.64,110.296 280.712,110.464 280.856,110.56 C282.104,111.688 283.28,111.976 285.032,111.976 Z M285.176,106.384 C282.608,106.384 281.12,104.272 281.12,101.464 C281.12,98.656 282.608,96.52 285.176,96.52 C286.784,96.52 288.32,97.504 288.992,98.632 L288.992,104.272 C288.32,105.4 286.784,106.384 285.176,106.384 Z M294.502,93.28 C295.03,93.28 295.462,92.848 295.462,92.32 C295.462,91.792 295.03,91.36 294.502,91.36 C293.998,91.36 293.542,91.792 293.542,92.32 C293.542,92.848 293.998,93.28 294.502,93.28 Z M294.502,107.344 C294.838,107.344 295.126,107.056 295.126,106.72 L295.126,96.232 C295.126,95.896 294.838,95.608 294.502,95.608 C294.166,95.608 293.878,95.896 293.878,96.232 L293.878,106.72 C293.878,107.056 294.166,107.344 294.502,107.344 Z M301.284,107.56 C301.98,107.56 302.484,107.392 302.892,107.104 C303.06,107.008 303.18,106.864 303.18,106.624 C303.18,106.312 302.94,106.072 302.628,106.072 C302.34,106.072 302.172,106.432 301.476,106.432 C300.66,106.432 300.276,105.784 300.276,104.848 L300.276,96.784 L302.124,96.784 C302.436,96.784 302.7,96.544 302.7,96.232 C302.7,95.92 302.436,95.68 302.124,95.68 L300.276,95.68 L300.276,93.064 C300.276,92.728 299.988,92.44 299.652,92.44 C299.292,92.44 299.004,92.728 299.004,93.064 L299.004,95.68 L297.588,95.68 C297.276,95.68 297.012,95.92 297.012,96.232 C297.012,96.544 297.276,96.784 297.588,96.784 L299.004,96.784 L299.004,105.04 C299.004,106.624 299.748,107.56 301.284,107.56 Z M305.738,93.28 C306.266,93.28 306.698,92.848 306.698,92.32 C306.698,91.792 306.266,91.36 305.738,91.36 C305.234,91.36 304.778,91.792 304.778,92.32 C304.778,92.848 305.234,93.28 305.738,93.28 Z M305.738,107.344 C306.074,107.344 306.362,107.056 306.362,106.72 L306.362,96.232 C306.362,95.896 306.074,95.608 305.738,95.608 C305.402,95.608 305.114,95.896 305.114,96.232 L305.114,106.72 C305.114,107.056 305.402,107.344 305.738,107.344 Z M313.456,107.56 C316.36,107.56 317.8,106.024 317.8,104.152 C317.8,101.979636 316.076298,101.290028 314.30654,100.812722 L313.940276,100.716582 C313.818336,100.685267 313.696727,100.654545 313.576,100.624 C311.968,100.216 310.48,99.856 310.48,98.536 C310.48,97.336 311.584,96.448 313.384,96.448 C314.68,96.448 315.76,96.904 316.504,97.624 C316.576,97.696 316.72,97.768 316.84,97.768 C317.152,97.768 317.392,97.504 317.392,97.216 C317.392,97.024 317.32,96.904 317.2,96.784 C316.336,95.968 315.112,95.392 313.384,95.392 C310.768,95.392 309.256,96.832 309.256,98.608 C309.256,100.864 311.392,101.368 313.336,101.848 C314.992,102.28 316.576,102.712 316.576,104.2 C316.576,105.544 315.424,106.504 313.48,106.504 C312.064,106.504 310.912,105.952 310.096,105.184 C310,105.088 309.88,105.04 309.736,105.04 C309.4,105.04 309.136,105.304 309.136,105.64 C309.136,105.808 309.232,105.976 309.352,106.072 C310.504,107.128 311.8,107.56 313.456,107.56 Z M325.902,107.56 C327.63,107.56 328.95,107.008 330.102,106 C330.222,105.88 330.294,105.76 330.294,105.592 C330.294,105.28 330.078,105.064 329.79,105.064 C329.67,105.064 329.55,105.088 329.478,105.16 C328.494,106.048 327.318,106.48 325.998,106.48 C323.262,106.48 321.582,104.392 321.462,101.872 L330.414,101.872 C330.894,101.872 331.158,101.608 331.158,101.176 C331.158,98.2 329.214,95.392 325.686,95.392 C322.47,95.392 320.094,98.104 320.094,101.464 C320.094,105.04 322.518,107.56 325.902,107.56 Z M329.886,100.888 L321.462,100.888 C321.558,98.872 322.926,96.472 325.662,96.472 C328.566,96.472 329.862,98.92 329.886,100.888 Z M338.636,107.56 C340.34,107.56 341.828,106.648 342.668,105.448 L342.668,106.72 C342.668,107.056 342.98,107.344 343.316,107.344 C343.652,107.344 343.94,107.056 343.94,106.72 L343.94,91.816 C343.94,91.48 343.652,91.192 343.316,91.192 C342.98,91.192 342.668,91.48 342.668,91.816 L342.668,97.528 C341.708,96.208 340.268,95.392 338.636,95.392 C335.564,95.392 333.452,97.816 333.452,101.488 C333.452,105.208 335.564,107.56 338.636,107.56 Z M338.852,106.432 C336.284,106.432 334.796,104.296 334.796,101.488 C334.796,98.68 336.284,96.52 338.852,96.52 C340.484,96.52 341.996,97.504 342.668,98.632 L342.668,104.368 C341.996,105.472 340.484,106.432 338.852,106.432 Z M356.064,107.56 C356.76,107.56 357.264,107.392 357.672,107.104 C357.84,107.008 357.96,106.864 357.96,106.624 C357.96,106.312 357.72,106.072 357.408,106.072 C357.12,106.072 356.952,106.432 356.256,106.432 C355.44,106.432 355.056,105.784 355.056,104.848 L355.056,96.784 L356.904,96.784 C357.216,96.784 357.48,96.544 357.48,96.232 C357.48,95.92 357.216,95.68 356.904,95.68 L355.056,95.68 L355.056,93.064 C355.056,92.728 354.768,92.44 354.432,92.44 C354.072,92.44 353.784,92.728 353.784,93.064 L353.784,95.68 L352.368,95.68 C352.056,95.68 351.792,95.92 351.792,96.232 C351.792,96.544 352.056,96.784 352.368,96.784 L353.784,96.784 L353.784,105.04 C353.784,106.624 354.528,107.56 356.064,107.56 Z M365.03,107.56 C366.758,107.56 368.078,107.008 369.23,106 C369.35,105.88 369.422,105.76 369.422,105.592 C369.422,105.28 369.206,105.064 368.918,105.064 C368.798,105.064 368.678,105.088 368.606,105.16 C367.622,106.048 366.446,106.48 365.126,106.48 C362.39,106.48 360.71,104.392 360.59,101.872 L369.542,101.872 C370.022,101.872 370.286,101.608 370.286,101.176 C370.286,98.2 368.342,95.392 364.814,95.392 C361.598,95.392 359.222,98.104 359.222,101.464 C359.222,105.04 361.646,107.56 365.03,107.56 Z M369.014,100.888 L360.59,100.888 C360.686,98.872 362.054,96.472 364.79,96.472 C367.694,96.472 368.99,98.92 369.014,100.888 Z M380.788,107.344 C381.148,107.344 381.388,107.032 381.388,106.744 C381.388,106.6 381.34,106.456 381.244,106.36 L377.14,101.272 L380.98,96.592 C381.076,96.496 381.124,96.352 381.124,96.232 C381.124,95.896 380.86,95.608 380.524,95.608 C380.356,95.608 380.188,95.68 380.068,95.824 L376.444,100.408 L372.796,95.824 C372.676,95.68 372.532,95.608 372.34,95.608 C372.004,95.608 371.74,95.896 371.74,96.232 C371.74,96.352 371.788,96.496 371.884,96.592 L375.724,101.272 L371.62,106.36 C371.548,106.456 371.5,106.6 371.5,106.744 C371.5,107.032 371.716,107.344 372.1,107.344 C372.268,107.344 372.436,107.248 372.556,107.104 L376.42,102.16 L380.308,107.128 C380.428,107.272 380.62,107.344 380.788,107.344 Z M386.394,107.56 C387.09,107.56 387.594,107.392 388.002,107.104 C388.17,107.008 388.29,106.864 388.29,106.624 C388.29,106.312 388.05,106.072 387.738,106.072 C387.45,106.072 387.282,106.432 386.586,106.432 C385.77,106.432 385.386,105.784 385.386,104.848 L385.386,96.784 L387.234,96.784 C387.546,96.784 387.81,96.544 387.81,96.232 C387.81,95.92 387.546,95.68 387.234,95.68 L385.386,95.68 L385.386,93.064 C385.386,92.728 385.098,92.44 384.762,92.44 C384.402,92.44 384.114,92.728 384.114,93.064 L384.114,95.68 L382.698,95.68 C382.386,95.68 382.122,95.92 382.122,96.232 C382.122,96.544 382.386,96.784 382.698,96.784 L384.114,96.784 L384.114,105.04 C384.114,106.624 384.858,107.56 386.394,107.56 Z M393.68,107.56 C396.584,107.56 398.024,106.024 398.024,104.152 C398.024,101.979636 396.300298,101.290028 394.53054,100.812722 L394.164276,100.716582 C394.042336,100.685267 393.920727,100.654545 393.8,100.624 C392.192,100.216 390.704,99.856 390.704,98.536 C390.704,97.336 391.808,96.448 393.608,96.448 C394.904,96.448 395.984,96.904 396.728,97.624 C396.8,97.696 396.944,97.768 397.064,97.768 C397.376,97.768 397.616,97.504 397.616,97.216 C397.616,97.024 397.544,96.904 397.424,96.784 C396.56,95.968 395.336,95.392 393.608,95.392 C390.992,95.392 389.48,96.832 389.48,98.608 C389.48,100.864 391.616,101.368 393.56,101.848 C395.216,102.28 396.8,102.712 396.8,104.2 C396.8,105.544 395.648,106.504 393.704,106.504 C392.288,106.504 391.136,105.952 390.32,105.184 C390.224,105.088 390.104,105.04 389.96,105.04 C389.624,105.04 389.36,105.304 389.36,105.64 C389.36,105.808 389.456,105.976 389.576,106.072 C390.728,107.128 392.024,107.56 393.68,107.56 Z" id="Openingupaworldofdigitisedtexts" fill="#F5F8FA" fill-rule="nonzero"></path>
    </g>
</svg>