<?xml version="1.0" encoding="UTF-8"?>
<svg width="447px" height="125px" viewBox="0 0 447 125" version="1.1" xmlns="http://www.w3.org/2000/svg" xmlns:xlink="http://www.w3.org/1999/xlink">
    <title>wordmark copy</title>
    <g id="wordmark-copy" stroke="none" stroke-width="1" fill="none" fill-rule="evenodd">
        <path d="M69.892,57.696 C81.086,57.696 88.278,48.88 88.278,37.686 C88.278,26.492 81.086,17.676 69.892,17.676 C58.64,17.676 51.506,26.492 51.506,37.686 C51.506,48.88 58.64,57.696 69.892,57.696 Z M69.892,55.956 C59.858,55.956 53.536,48.184 53.536,37.686 C53.536,27.072 59.858,19.416 69.892,19.416 C79.81,19.416 86.248,27.072 86.248,37.686 C86.248,48.184 79.81,55.956 69.892,55.956 Z M100.08,57.116 C100.602,57.116 101.008,56.652 101.008,56.188 L101.008,40.238 L112.55,40.238 C119.626,40.238 123.86,35.192 123.86,29.276 C123.86,23.36 119.742,18.314 112.55,18.314 L100.196,18.314 C99.558,18.314 99.152,18.72 99.152,19.358 L99.152,56.188 C99.152,56.652 99.558,57.116 100.08,57.116 Z M112.492,38.498 L101.008,38.498 L101.008,20.054 L112.492,20.054 C118.176,20.054 121.83,23.94 121.83,29.276 C121.83,34.612 118.176,38.498 112.492,38.498 Z M156.252,57 C156.716,57 157.122,56.594 157.122,56.13 C157.122,55.666 156.716,55.26 156.252,55.26 L135.198,55.26 L135.198,37.976 L155.846,37.976 C156.31,37.976 156.716,37.57 156.716,37.106 C156.716,36.642 156.31,36.236 155.846,36.236 L135.198,36.236 L135.198,20.054 L156.252,20.054 C156.716,20.054 157.122,19.648 157.122,19.184 C157.122,18.72 156.716,18.314 156.252,18.314 L134.386,18.314 C133.748,18.314 133.342,18.72 133.342,19.358 L133.342,55.956 C133.342,56.594 133.748,57 134.386,57 L156.252,57 Z M196.358,57.116 C196.996,57.116 197.518,56.536 197.518,55.898 L197.518,19.126 C197.518,18.662 197.112,18.198 196.59,18.198 C196.068,18.198 195.662,18.662 195.662,19.126 L195.662,53.636 L169.852,18.72 C169.678,18.43 169.272,18.198 168.866,18.198 C168.228,18.198 167.706,18.778 167.706,19.416 L167.706,56.188 C167.706,56.652 168.112,57.116 168.634,57.116 C169.156,57.116 169.562,56.652 169.562,56.188 L169.562,21.33 L195.372,56.594 C195.546,56.884 195.952,57.116 196.358,57.116 Z M237.884,57.116 C238.406,57.116 238.812,56.652 238.812,56.188 L238.812,20.054 L251.166,20.054 C251.63,20.054 252.036,19.648 252.036,19.184 C252.036,18.72 251.63,18.314 251.166,18.314 L224.66,18.314 C224.196,18.314 223.79,18.72 223.79,19.184 C223.79,19.648 224.196,20.054 224.66,20.054 L236.956,20.054 L236.956,56.188 C236.956,56.652 237.362,57.116 237.884,57.116 Z M284.138,57 C284.602,57 285.008,56.594 285.008,56.13 C285.008,55.666 284.602,55.26 284.138,55.26 L263.084,55.26 L263.084,37.976 L283.732,37.976 C284.196,37.976 284.602,37.57 284.602,37.106 C284.602,36.642 284.196,36.236 283.732,36.236 L263.084,36.236 L263.084,20.054 L284.138,20.054 C284.602,20.054 285.008,19.648 285.008,19.184 C285.008,18.72 284.602,18.314 284.138,18.314 L262.272,18.314 C261.634,18.314 261.228,18.72 261.228,19.358 L261.228,55.956 C261.228,56.594 261.634,57 262.272,57 L284.138,57 Z M324.128,57.116 C324.65,57.116 325.114,56.652 325.114,56.13 C325.114,55.898 324.998,55.724 324.882,55.55 L310.034,37.106 L323.954,19.764 C324.07,19.59 324.186,19.416 324.186,19.184 C324.186,18.662 323.78,18.198 323.2,18.198 C322.91,18.198 322.62,18.372 322.446,18.604 L308.99,35.714 L295.534,18.604 C295.36,18.372 295.07,18.198 294.78,18.198 C294.2,18.198 293.794,18.662 293.794,19.184 C293.794,19.416 293.852,19.648 293.968,19.822 L307.946,37.164 L293.098,55.55 C292.982,55.724 292.866,55.956 292.866,56.13 C292.866,56.652 293.33,57.116 293.852,57.116 C294.142,57.116 294.432,56.942 294.606,56.768 L308.99,38.498 L323.374,56.768 C323.548,56.942 323.838,57.116 324.128,57.116 Z M345.674,57.116 C346.196,57.116 346.602,56.652 346.602,56.188 L346.602,20.054 L358.956,20.054 C359.42,20.054 359.826,19.648 359.826,19.184 C359.826,18.72 359.42,18.314 358.956,18.314 L332.45,18.314 C331.986,18.314 331.58,18.72 331.58,19.184 C331.58,19.648 331.986,20.054 332.45,20.054 L344.746,20.054 L344.746,56.188 C344.746,56.652 345.152,57.116 345.674,57.116 Z M380.502,57.696 C390.942,57.696 393.726,51.548 393.726,47.198 C393.726,39.542 387.172,37.57 380.966,35.772 C375.456,34.206 370.236,32.756 370.236,27.536 C370.236,22.78 374.702,19.416 380.328,19.416 C384.446,19.416 388.1,20.692 390.826,23.766 C391,23.998 391.29,24.114 391.58,24.114 C392.102,24.114 392.566,23.65 392.566,23.128 C392.566,22.896 392.45,22.664 392.276,22.49 C389.492,19.474 385.606,17.676 380.328,17.676 C373.948,17.676 368.206,21.272 368.206,27.536 C368.206,34.264 374.354,35.946 380.328,37.628 C386.07,39.252 391.696,40.934 391.696,47.198 C391.696,50.852 389.434,55.956 380.502,55.956 C375.398,55.956 371.57,53.578 369.076,50.91 C368.902,50.678 368.612,50.562 368.322,50.562 C367.8,50.562 367.336,51.026 367.336,51.606 C367.336,51.838 367.394,52.07 367.568,52.244 C370.468,55.434 374.934,57.696 380.502,57.696 Z" id="OPENTEXTS" fill="#0080AB" fill-rule="nonzero"></path>
        <path d="M50.121,100.288 C54.801,100.288 57.897,96.688 57.897,92.008 C57.897,87.328 54.801,83.728 50.121,83.728 C45.417,83.728 42.345,87.328 42.345,92.008 C42.345,96.688 45.417,100.288 50.121,100.288 Z M50.121,99.04 C46.233,99.04 43.785,96.04 43.785,92.008 C43.785,87.928 46.233,84.976 50.121,84.976 C53.961,84.976 56.457,87.928 56.457,92.008 C56.457,96.04 53.961,99.04 50.121,99.04 Z M61.407,104.488 C61.743,104.488 62.031,104.2 62.031,103.864 L62.031,98.104 C62.967,99.448 64.407,100.288 66.063,100.288 C69.159,100.288 71.247,97.888 71.247,94.192 C71.247,90.472 69.159,88.12 66.063,88.12 C64.359,88.12 62.871,89.032 62.031,90.256 L62.031,88.96 C62.031,88.624 61.743,88.336 61.407,88.336 C61.071,88.336 60.783,88.624 60.783,88.96 L60.783,103.864 C60.783,104.2 61.071,104.488 61.407,104.488 Z M65.847,99.16 C64.239,99.16 62.703,98.152 62.031,97.048 L62.031,91.312 C62.703,90.208 64.239,89.248 65.847,89.248 C68.439,89.248 69.903,91.384 69.903,94.192 C69.903,97 68.439,99.16 65.847,99.16 Z M79.149,100.288 C80.877,100.288 82.197,99.736 83.349,98.728 C83.469,98.608 83.541,98.488 83.541,98.32 C83.541,98.008 83.325,97.792 83.037,97.792 C82.917,97.792 82.797,97.816 82.725,97.888 C81.741,98.776 80.565,99.208 79.245,99.208 C76.509,99.208 74.829,97.12 74.709,94.6 L83.661,94.6 C84.141,94.6 84.405,94.336 84.405,93.904 C84.405,90.928 82.461,88.12 78.933,88.12 C75.717,88.12 73.341,90.832 73.341,94.192 C73.341,97.768 75.765,100.288 79.149,100.288 Z M83.133,93.616 L74.709,93.616 C74.805,91.6 76.173,89.2 78.909,89.2 C81.813,89.2 83.109,91.648 83.133,93.616 Z M95.619,100.072 C95.955,100.072 96.243,99.784 96.243,99.448 L96.243,91.888 C96.243,89.272 94.947,88.12 92.595,88.12 C90.915,88.12 89.259,89.152 88.419,90.16 L88.419,88.96 C88.419,88.624 88.131,88.336 87.795,88.336 C87.459,88.336 87.171,88.624 87.171,88.96 L87.171,99.448 C87.171,99.784 87.459,100.072 87.795,100.072 C88.131,100.072 88.419,99.784 88.419,99.448 L88.419,91.24 C89.163,90.184 90.699,89.248 92.187,89.248 C93.867,89.248 94.995,89.92 94.995,92.152 L94.995,99.448 C94.995,99.784 95.283,100.072 95.619,100.072 Z M100.305,86.008 C100.833,86.008 101.265,85.576 101.265,85.048 C101.265,84.52 100.833,84.088 100.305,84.088 C99.801,84.088 99.345,84.52 99.345,85.048 C99.345,85.576 99.801,86.008 100.305,86.008 Z M100.305,100.072 C100.641,100.072 100.929,99.784 100.929,99.448 L100.929,88.96 C100.929,88.624 100.641,88.336 100.305,88.336 C99.969,88.336 99.681,88.624 99.681,88.96 L99.681,99.448 C99.681,99.784 99.969,100.072 100.305,100.072 Z M112.815,100.072 C113.151,100.072 113.439,99.784 113.439,99.448 L113.439,91.888 C113.439,89.272 112.143,88.12 109.791,88.12 C108.111,88.12 106.455,89.152 105.615,90.16 L105.615,88.96 C105.615,88.624 105.327,88.336 104.991,88.336 C104.655,88.336 104.367,88.624 104.367,88.96 L104.367,99.448 C104.367,99.784 104.655,100.072 104.991,100.072 C105.327,100.072 105.615,99.784 105.615,99.448 L105.615,91.24 C106.359,90.184 107.895,89.248 109.383,89.248 C111.063,89.248 112.191,89.92 112.191,92.152 L112.191,99.448 C112.191,99.784 112.479,100.072 112.815,100.072 Z M121.461,104.704 C124.293,104.704 126.693,103.432 126.693,99.88 L126.693,88.96 C126.693,88.624 126.405,88.336 126.069,88.336 C125.709,88.336 125.421,88.624 125.421,88.96 L125.421,90.256 C124.461,88.936 123.021,88.12 121.389,88.12 C118.317,88.12 116.205,90.52 116.205,94.192 C116.205,97.912 118.317,100.24 121.389,100.24 C123.093,100.24 124.557,99.256 125.421,98.104 L125.421,99.904 C125.421,102.568 123.573,103.624 121.461,103.624 C119.973,103.624 118.941,103.288 118.005,102.4 C117.909,102.304 117.765,102.256 117.645,102.256 C117.309,102.256 117.069,102.52 117.069,102.832 C117.069,103.024 117.141,103.192 117.285,103.288 C118.533,104.416 119.709,104.704 121.461,104.704 Z M121.605,99.112 C119.037,99.112 117.549,97 117.549,94.192 C117.549,91.384 119.037,89.248 121.605,89.248 C123.213,89.248 124.749,90.232 125.421,91.36 L125.421,97 C124.749,98.128 123.213,99.112 121.605,99.112 Z M139.521,100.288 C141.201,100.288 142.761,99.352 143.697,98.296 L143.697,99.448 C143.697,99.784 143.985,100.072 144.321,100.072 C144.657,100.072 144.945,99.784 144.945,99.448 L144.945,88.96 C144.945,88.624 144.657,88.336 144.321,88.336 C143.985,88.336 143.697,88.624 143.697,88.96 L143.697,97.24 C142.929,98.272 141.417,99.16 139.929,99.16 C138.249,99.16 137.121,98.536 137.121,96.28 L137.121,88.96 C137.121,88.624 136.833,88.336 136.497,88.336 C136.161,88.336 135.873,88.624 135.873,88.96 L135.873,96.568 C135.873,99.184 137.145,100.288 139.521,100.288 Z M149.007,104.488 C149.343,104.488 149.631,104.2 149.631,103.864 L149.631,98.104 C150.567,99.448 152.007,100.288 153.663,100.288 C156.759,100.288 158.847,97.888 158.847,94.192 C158.847,90.472 156.759,88.12 153.663,88.12 C151.959,88.12 150.471,89.032 149.631,90.256 L149.631,88.96 C149.631,88.624 149.343,88.336 149.007,88.336 C148.671,88.336 148.383,88.624 148.383,88.96 L148.383,103.864 C148.383,104.2 148.671,104.488 149.007,104.488 Z M153.447,99.16 C151.839,99.16 150.303,98.152 149.631,97.048 L149.631,91.312 C150.303,90.208 151.839,89.248 153.447,89.248 C156.039,89.248 157.503,91.384 157.503,94.192 C157.503,97 156.039,99.16 153.447,99.16 Z M170.811,100.288 C172.419,100.288 173.763,99.736 174.747,98.584 L174.747,99.448 C174.747,99.784 175.035,100.072 175.371,100.072 C175.707,100.072 175.995,99.784 175.995,99.448 L175.995,91.84 C175.995,89.248 174.123,88.12 171.771,88.12 C170.043,88.12 168.771,88.648 167.643,89.752 C167.523,89.848 167.451,89.992 167.451,90.16 C167.451,90.472 167.691,90.712 168.003,90.712 C168.147,90.712 168.267,90.664 168.363,90.592 C169.347,89.608 170.355,89.224 171.627,89.224 C173.355,89.224 174.747,90.16 174.747,91.888 L174.747,94.24 C173.739,93.112 172.419,92.584 170.811,92.584 C168.795,92.584 166.755,93.904 166.755,96.424 C166.755,98.92 168.819,100.288 170.811,100.288 Z M171.243,99.304 C169.323,99.304 168.075,98.08 168.075,96.448 C168.075,94.792 169.323,93.568 171.243,93.568 C172.635,93.568 173.931,94.12 174.747,95.176 L174.747,97.72 C173.931,98.776 172.635,99.304 171.243,99.304 Z M195.975,100.096 C196.503,100.096 196.983,99.76 197.127,99.256 L200.247,89.512 C200.271,89.44 200.295,89.296 200.295,89.2 C200.295,88.72 199.887,88.312 199.407,88.312 C198.999,88.312 198.639,88.576 198.543,88.936 L195.879,97.648 L193.047,89.008 C192.903,88.576 192.519,88.312 192.063,88.312 C191.607,88.312 191.223,88.576 191.079,89.008 L188.247,97.648 L185.583,88.936 C185.487,88.576 185.127,88.312 184.719,88.312 C184.239,88.312 183.831,88.696 183.831,89.2 C183.831,89.296 183.855,89.392 183.879,89.488 L186.999,99.256 C187.143,99.76 187.623,100.096 188.151,100.096 C188.679,100.096 189.135,99.76 189.279,99.256 L192.063,90.688 L194.847,99.256 C194.991,99.76 195.447,100.096 195.975,100.096 Z M207.285,100.288 C210.813,100.288 213.021,97.552 213.021,94.192 C213.021,90.832 210.813,88.12 207.285,88.12 C203.757,88.12 201.549,90.832 201.549,94.192 C201.549,97.552 203.757,100.288 207.285,100.288 Z M207.285,98.68 C204.813,98.68 203.421,96.568 203.421,94.192 C203.421,91.84 204.813,89.728 207.285,89.728 C209.757,89.728 211.125,91.84 211.125,94.192 C211.125,96.568 209.757,98.68 207.285,98.68 Z M216.411,100.096 C216.891,100.096 217.299,99.688 217.299,99.208 L217.299,91.792 C217.827,90.856 219.243,90.04 220.299,89.968 C220.923,89.896 221.283,89.512 221.283,89.08 C221.283,88.624 220.995,88.216 220.467,88.216 C220.275,88.216 220.131,88.264 219.891,88.336 C218.955,88.576 217.995,89.344 217.299,90.28 L217.299,89.2 C217.299,88.72 216.891,88.312 216.387,88.312 C215.907,88.312 215.499,88.72 215.499,89.2 L215.499,99.208 C215.499,99.688 215.907,100.096 216.411,100.096 Z M223.881,100.096 C224.361,100.096 224.769,99.688 224.769,99.208 L224.769,84.784 C224.769,84.304 224.361,83.896 223.881,83.896 C223.377,83.896 222.969,84.304 222.969,84.784 L222.969,99.208 C222.969,99.688 223.377,100.096 223.881,100.096 Z M232.407,100.288 C234.039,100.288 235.455,99.448 236.319,98.272 L236.319,99.208 C236.319,99.688 236.727,100.096 237.207,100.096 C237.711,100.096 238.119,99.688 238.119,99.208 L238.119,84.784 C238.119,84.304 237.711,83.896 237.207,83.896 C236.727,83.896 236.319,84.304 236.319,84.784 L236.319,90.184 C235.359,88.888 233.967,88.12 232.407,88.12 C229.359,88.12 227.247,90.52 227.247,94.216 C227.247,97.984 229.383,100.288 232.407,100.288 Z M232.839,98.68 C230.511,98.68 229.119,96.784 229.119,94.216 C229.119,91.648 230.511,89.728 232.839,89.728 C234.279,89.728 235.671,90.592 236.319,91.6 L236.319,96.856 C235.671,97.864 234.279,98.68 232.839,98.68 Z M252.075,100.288 C255.507,100.288 257.667,97.576 257.667,94.192 C257.667,90.808 255.507,88.12 252.075,88.12 C248.691,88.12 246.507,90.808 246.507,94.192 C246.507,97.576 248.691,100.288 252.075,100.288 Z M252.075,99.16 C249.387,99.16 247.851,96.784 247.851,94.192 C247.851,91.624 249.387,89.248 252.075,89.248 C254.811,89.248 256.323,91.624 256.323,94.192 C256.323,96.784 254.811,99.16 252.075,99.16 Z M261.465,100.072 C261.801,100.072 262.089,99.784 262.089,99.448 L262.089,89.512 L263.961,89.512 C264.249,89.512 264.537,89.272 264.537,88.96 C264.537,88.648 264.249,88.408 263.961,88.408 L262.089,88.408 L262.089,87.352 C262.089,85.744 262.785,84.832 264.105,84.832 C264.489,84.832 264.753,84.952 264.945,84.952 C265.281,84.952 265.473,84.736 265.473,84.424 C265.473,84.184 265.305,83.992 265.065,83.92 C264.729,83.8 264.369,83.752 263.985,83.752 C262.065,83.752 260.841,85.072 260.841,87.352 L260.841,88.408 L259.401,88.408 C259.113,88.408 258.849,88.648 258.849,88.96 C258.849,89.272 259.113,89.512 259.401,89.512 L260.841,89.512 L260.841,99.448 C260.841,99.784 261.129,100.072 261.465,100.072 Z M276.621,100.288 C278.325,100.288 279.813,99.376 280.653,98.176 L280.653,99.448 C280.653,99.784 280.965,100.072 281.301,100.072 C281.637,100.072 281.925,99.784 281.925,99.448 L281.925,84.544 C281.925,84.208 281.637,83.92 281.301,83.92 C280.965,83.92 280.653,84.208 280.653,84.544 L280.653,90.256 C279.693,88.936 278.253,88.12 276.621,88.12 C273.549,88.12 271.437,90.544 271.437,94.216 C271.437,97.936 273.549,100.288 276.621,100.288 Z M276.837,99.16 C274.269,99.16 272.781,97.024 272.781,94.216 C272.781,91.408 274.269,89.248 276.837,89.248 C278.469,89.248 279.981,90.232 280.653,91.36 L280.653,97.096 C279.981,98.2 278.469,99.16 276.837,99.16 Z M285.987,86.008 C286.515,86.008 286.947,85.576 286.947,85.048 C286.947,84.52 286.515,84.088 285.987,84.088 C285.483,84.088 285.027,84.52 285.027,85.048 C285.027,85.576 285.483,86.008 285.987,86.008 Z M285.987,100.072 C286.323,100.072 286.611,99.784 286.611,99.448 L286.611,88.96 C286.611,88.624 286.323,88.336 285.987,88.336 C285.651,88.336 285.363,88.624 285.363,88.96 L285.363,99.448 C285.363,99.784 285.651,100.072 285.987,100.072 Z M294.633,104.704 C297.465,104.704 299.865,103.432 299.865,99.88 L299.865,88.96 C299.865,88.624 299.577,88.336 299.241,88.336 C298.881,88.336 298.593,88.624 298.593,88.96 L298.593,90.256 C297.633,88.936 296.193,88.12 294.561,88.12 C291.489,88.12 289.377,90.52 289.377,94.192 C289.377,97.912 291.489,100.24 294.561,100.24 C296.265,100.24 297.729,99.256 298.593,98.104 L298.593,99.904 C298.593,102.568 296.745,103.624 294.633,103.624 C293.145,103.624 292.113,103.288 291.177,102.4 C291.081,102.304 290.937,102.256 290.817,102.256 C290.481,102.256 290.241,102.52 290.241,102.832 C290.241,103.024 290.313,103.192 290.457,103.288 C291.705,104.416 292.881,104.704 294.633,104.704 Z M294.777,99.112 C292.209,99.112 290.721,97 290.721,94.192 C290.721,91.384 292.209,89.248 294.777,89.248 C296.385,89.248 297.921,90.232 298.593,91.36 L298.593,97 C297.921,98.128 296.385,99.112 294.777,99.112 Z M303.903,86.008 C304.431,86.008 304.863,85.576 304.863,85.048 C304.863,84.52 304.431,84.088 303.903,84.088 C303.399,84.088 302.943,84.52 302.943,85.048 C302.943,85.576 303.399,86.008 303.903,86.008 Z M303.903,100.072 C304.239,100.072 304.527,99.784 304.527,99.448 L304.527,88.96 C304.527,88.624 304.239,88.336 303.903,88.336 C303.567,88.336 303.279,88.624 303.279,88.96 L303.279,99.448 C303.279,99.784 303.567,100.072 303.903,100.072 Z M310.485,100.288 C311.181,100.288 311.685,100.12 312.093,99.832 C312.261,99.736 312.381,99.592 312.381,99.352 C312.381,99.04 312.141,98.8 311.829,98.8 C311.541,98.8 311.373,99.16 310.677,99.16 C309.861,99.16 309.477,98.512 309.477,97.576 L309.477,89.512 L311.325,89.512 C311.637,89.512 311.901,89.272 311.901,88.96 C311.901,88.648 311.637,88.408 311.325,88.408 L309.477,88.408 L309.477,85.792 C309.477,85.456 309.189,85.168 308.853,85.168 C308.493,85.168 308.205,85.456 308.205,85.792 L308.205,88.408 L306.789,88.408 C306.477,88.408 306.213,88.648 306.213,88.96 C306.213,89.272 306.477,89.512 306.789,89.512 L308.205,89.512 L308.205,97.768 C308.205,99.352 308.949,100.288 310.485,100.288 Z M314.739,86.008 C315.267,86.008 315.699,85.576 315.699,85.048 C315.699,84.52 315.267,84.088 314.739,84.088 C314.235,84.088 313.779,84.52 313.779,85.048 C313.779,85.576 314.235,86.008 314.739,86.008 Z M314.739,100.072 C315.075,100.072 315.363,99.784 315.363,99.448 L315.363,88.96 C315.363,88.624 315.075,88.336 314.739,88.336 C314.403,88.336 314.115,88.624 314.115,88.96 L314.115,99.448 C314.115,99.784 314.403,100.072 314.739,100.072 Z M322.257,100.288 C325.161,100.288 326.601,98.752 326.601,96.88 C326.601,94.408 324.369,93.856 322.377,93.352 C320.769,92.944 319.281,92.584 319.281,91.264 C319.281,90.064 320.385,89.176 322.185,89.176 C323.481,89.176 324.561,89.632 325.305,90.352 C325.377,90.424 325.521,90.496 325.641,90.496 C325.953,90.496 326.193,90.232 326.193,89.944 C326.193,89.752 326.121,89.632 326.001,89.512 C325.137,88.696 323.913,88.12 322.185,88.12 C319.569,88.12 318.057,89.56 318.057,91.336 C318.057,93.592 320.193,94.096 322.137,94.576 C323.793,95.008 325.377,95.44 325.377,96.928 C325.377,98.272 324.225,99.232 322.281,99.232 C320.865,99.232 319.713,98.68 318.897,97.912 C318.801,97.816 318.681,97.768 318.537,97.768 C318.201,97.768 317.937,98.032 317.937,98.368 C317.937,98.536 318.033,98.704 318.153,98.8 C319.305,99.856 320.601,100.288 322.257,100.288 Z M334.503,100.288 C336.231,100.288 337.551,99.736 338.703,98.728 C338.823,98.608 338.895,98.488 338.895,98.32 C338.895,98.008 338.679,97.792 338.391,97.792 C338.271,97.792 338.151,97.816 338.079,97.888 C337.095,98.776 335.919,99.208 334.599,99.208 C331.863,99.208 330.183,97.12 330.063,94.6 L339.015,94.6 C339.495,94.6 339.759,94.336 339.759,93.904 C339.759,90.928 337.815,88.12 334.287,88.12 C331.071,88.12 328.695,90.832 328.695,94.192 C328.695,97.768 331.119,100.288 334.503,100.288 Z M338.487,93.616 L330.063,93.616 C330.159,91.6 331.527,89.2 334.263,89.2 C337.167,89.2 338.463,91.648 338.487,93.616 Z M347.037,100.288 C348.741,100.288 350.229,99.376 351.069,98.176 L351.069,99.448 C351.069,99.784 351.381,100.072 351.717,100.072 C352.053,100.072 352.341,99.784 352.341,99.448 L352.341,84.544 C352.341,84.208 352.053,83.92 351.717,83.92 C351.381,83.92 351.069,84.208 351.069,84.544 L351.069,90.256 C350.109,88.936 348.669,88.12 347.037,88.12 C343.965,88.12 341.853,90.544 341.853,94.216 C341.853,97.936 343.965,100.288 347.037,100.288 Z M347.253,99.16 C344.685,99.16 343.197,97.024 343.197,94.216 C343.197,91.408 344.685,89.248 347.253,89.248 C348.885,89.248 350.397,90.232 351.069,91.36 L351.069,97.096 C350.397,98.2 348.885,99.16 347.253,99.16 Z M364.065,100.288 C364.761,100.288 365.265,100.12 365.673,99.832 C365.841,99.736 365.961,99.592 365.961,99.352 C365.961,99.04 365.721,98.8 365.409,98.8 C365.121,98.8 364.953,99.16 364.257,99.16 C363.441,99.16 363.057,98.512 363.057,97.576 L363.057,89.512 L364.905,89.512 C365.217,89.512 365.481,89.272 365.481,88.96 C365.481,88.648 365.217,88.408 364.905,88.408 L363.057,88.408 L363.057,85.792 C363.057,85.456 362.769,85.168 362.433,85.168 C362.073,85.168 361.785,85.456 361.785,85.792 L361.785,88.408 L360.369,88.408 C360.057,88.408 359.793,88.648 359.793,88.96 C359.793,89.272 360.057,89.512 360.369,89.512 L361.785,89.512 L361.785,97.768 C361.785,99.352 362.529,100.288 364.065,100.288 Z M372.831,100.288 C374.559,100.288 375.879,99.736 377.031,98.728 C377.151,98.608 377.223,98.488 377.223,98.32 C377.223,98.008 377.007,97.792 376.719,97.792 C376.599,97.792 376.479,97.816 376.407,97.888 C375.423,98.776 374.247,99.208 372.927,99.208 C370.191,99.208 368.511,97.12 368.391,94.6 L377.343,94.6 C377.823,94.6 378.087,94.336 378.087,93.904 C378.087,90.928 376.143,88.12 372.615,88.12 C369.399,88.12 367.023,90.832 367.023,94.192 C367.023,97.768 369.447,100.288 372.831,100.288 Z M376.815,93.616 L368.391,93.616 C368.487,91.6 369.855,89.2 372.591,89.2 C375.495,89.2 376.791,91.648 376.815,93.616 Z M388.389,100.072 C388.749,100.072 388.989,99.76 388.989,99.472 C388.989,99.328 388.941,99.184 388.845,99.088 L384.741,94 L388.581,89.32 C388.677,89.224 388.725,89.08 388.725,88.96 C388.725,88.624 388.461,88.336 388.125,88.336 C387.957,88.336 387.789,88.408 387.669,88.552 L384.045,93.136 L380.397,88.552 C380.277,88.408 380.133,88.336 379.941,88.336 C379.605,88.336 379.341,88.624 379.341,88.96 C379.341,89.08 379.389,89.224 379.485,89.32 L383.325,94 L379.221,99.088 C379.149,99.184 379.101,99.328 379.101,99.472 C379.101,99.76 379.317,100.072 379.701,100.072 C379.869,100.072 380.037,99.976 380.157,99.832 L384.021,94.888 L387.909,99.856 C388.029,100 388.221,100.072 388.389,100.072 Z M393.795,100.288 C394.491,100.288 394.995,100.12 395.403,99.832 C395.571,99.736 395.691,99.592 395.691,99.352 C395.691,99.04 395.451,98.8 395.139,98.8 C394.851,98.8 394.683,99.16 393.987,99.16 C393.171,99.16 392.787,98.512 392.787,97.576 L392.787,89.512 L394.635,89.512 C394.947,89.512 395.211,89.272 395.211,88.96 C395.211,88.648 394.947,88.408 394.635,88.408 L392.787,88.408 L392.787,85.792 C392.787,85.456 392.499,85.168 392.163,85.168 C391.803,85.168 391.515,85.456 391.515,85.792 L391.515,88.408 L390.099,88.408 C389.787,88.408 389.523,88.648 389.523,88.96 C389.523,89.272 389.787,89.512 390.099,89.512 L391.515,89.512 L391.515,97.768 C391.515,99.352 392.259,100.288 393.795,100.288 Z M400.881,100.288 C403.785,100.288 405.225,98.752 405.225,96.88 C405.225,94.408 402.993,93.856 401.001,93.352 C399.393,92.944 397.905,92.584 397.905,91.264 C397.905,90.064 399.009,89.176 400.809,89.176 C402.105,89.176 403.185,89.632 403.929,90.352 C404.001,90.424 404.145,90.496 404.265,90.496 C404.577,90.496 404.817,90.232 404.817,89.944 C404.817,89.752 404.745,89.632 404.625,89.512 C403.761,88.696 402.537,88.12 400.809,88.12 C398.193,88.12 396.681,89.56 396.681,91.336 C396.681,93.592 398.817,94.096 400.761,94.576 C402.417,95.008 404.001,95.44 404.001,96.928 C404.001,98.272 402.849,99.232 400.905,99.232 C399.489,99.232 398.337,98.68 397.521,97.912 C397.425,97.816 397.305,97.768 397.161,97.768 C396.825,97.768 396.561,98.032 396.561,98.368 C396.561,98.536 396.657,98.704 396.777,98.8 C397.929,99.856 399.225,100.288 400.881,100.288 Z" id="Openingupaworldofdigitisedtexts" fill="#F5F8FA" fill-rule="nonzero"></path>
    </g>
</svg>