<?xml version="1.0" encoding="UTF-8"?>
<svg width="94px" height="92px" viewBox="0 0 94 92" version="1.1" xmlns="http://www.w3.org/2000/svg" xmlns:xlink="http://www.w3.org/1999/xlink">
    <title>brand/logo</title>
    <g id="wireframes" stroke="none" stroke-width="1" fill="none" fill-rule="evenodd">
        <g id="front-page" transform="translate(-329.000000, -166.000000)">
            <g id="brand/logo" transform="translate(299.000000, 128.000000)">
                <polyline id="Path-4" stroke="#4B00AB" stroke-width="1.5" stroke-linecap="square" transform="translate(78.047939, 83.479190) rotate(-352.000000) translate(-78.047939, -83.479190) " points="78.0479391 40.4022667 104.421565 47.4352337 120.245741 72.0506183 120.245741 96.6660029 104.421565 121.281388 78.0479391 126.556113 51.6743127 121.281388 35.8501369 96.6660029 35.8501369 72.0506183"></polyline>
                <polyline id="Path-3" stroke="#AB0086" stroke-width="1.5" stroke-linecap="square" transform="translate(77.558539, 86.961451) rotate(-352.000000) translate(-77.558539, -86.961451) " points="35.360737 96.6317808 77.5585392 126.521891 119.756341 96.6317808 103.932166 47.4010115"></polyline>
                <polyline id="Path-2" stroke="#0080AB" stroke-width="1.5" stroke-linecap="square" transform="translate(78.414989, 80.867494) rotate(-352.000000) translate(-78.414989, -80.867494) " points="36.2171868 73.8345267 52.0413626 121.307054 104.788615 121.307054 120.612791 72.076285 78.414989 40.4279333"></polyline>
                <g id="Group" transform="translate(43.132315, 114.694522)" fill="#F5F8FA" stroke="#F5F8FA" stroke-width="0.5">
                    <g id="star-point-copy-8" transform="translate(2.637363, 2.637363) rotate(-352.000000) translate(-2.637363, -2.637363) ">
                        <circle id="Oval" cx="2.63736264" cy="2.63736264" r="2.63736264"></circle>
                    </g>
                </g>
                <g id="Group" transform="translate(117.888010, 75.486161)" fill="#F5F8FA" stroke="#F5F8FA" stroke-width="0.5">
                    <g id="star-point-copy-2" transform="translate(2.637363, 2.637363) rotate(-352.000000) translate(-2.637363, -2.637363) ">
                        <circle id="Oval" cx="2.63736264" cy="2.63736264" r="2.63736264"></circle>
                    </g>
                </g>
                <g id="Group" transform="translate(114.462210, 99.861991)" fill="#F5F8FA" stroke="#F5F8FA" stroke-width="0.5">
                    <g id="star-point-copy-6" transform="translate(2.637363, 2.637363) rotate(-352.000000) translate(-2.637363, -2.637363) ">
                        <circle id="Oval" cx="2.63736264" cy="2.63736264" r="2.63736264"></circle>
                    </g>
                </g>
                <g id="Group" transform="translate(68.422512, 124.247744)" fill="#F5F8FA" stroke="#F5F8FA" stroke-width="0.5">
                    <g id="star-point-copy" transform="translate(2.637363, 2.637363) rotate(-82.000000) translate(-2.637363, -2.637363) ">
                        <circle id="Oval" cx="2.63736264" cy="2.63736264" r="2.63736264"></circle>
                    </g>
                </g>
                <g id="Group" transform="translate(82.171052, 38.932341)" fill="#F5F8FA" stroke="#F5F8FA" stroke-width="0.5">
                    <g id="star-point-copy-2" transform="translate(2.637363, 2.637363) rotate(-82.000000) translate(-2.637363, -2.637363) ">
                        <circle id="Oval" cx="2.63736264" cy="2.63736264" r="2.63736264"></circle>
                    </g>
                </g>
                <g id="Group" transform="translate(74.540011, 80.719477)" fill="#F5F8FA" stroke="#F5F8FA" stroke-width="0.5">
                    <g id="star-point-copy" transform="translate(2.637363, 2.637363) rotate(-82.000000) translate(-2.637363, -2.637363) ">
                        <circle id="Oval" cx="2.63736264" cy="2.63736264" r="2.63736264"></circle>
                    </g>
                </g>
                <g id="Group" transform="translate(34.313738, 63.740563)" fill="#F5F8FA" stroke="#F5F8FA" stroke-width="0.5">
                    <g id="star-point-copy" transform="translate(2.637363, 2.637363) rotate(-397.000000) translate(-2.637363, -2.637363) ">
                        <circle id="Oval" cx="2.63736264" cy="2.63736264" r="2.63736264"></circle>
                    </g>
                </g>
                <g id="Group" transform="translate(30.887938, 88.116393)" fill="#F5F8FA" stroke="#F5F8FA" stroke-width="0.5">
                    <g id="star-point-copy-7" transform="translate(2.637363, 2.637363) rotate(-397.000000) translate(-2.637363, -2.637363) ">
                        <circle id="Oval" cx="2.63736264" cy="2.63736264" r="2.63736264"></circle>
                    </g>
                </g>
                <g id="Group" transform="translate(105.550970, 49.567363)" fill="#F5F8FA" stroke="#F5F8FA" stroke-width="0.5">
                    <g id="star-point-copy-2" transform="translate(2.637363, 2.637363) rotate(-397.000000) translate(-2.637363, -2.637363) ">
                        <circle id="Oval" cx="2.63736264" cy="2.63736264" r="2.63736264"></circle>
                    </g>
                </g>
                <g id="Group" transform="translate(95.366235, 122.035520)" fill="#F5F8FA" stroke="#F5F8FA" stroke-width="0.5">
                    <g id="star-point-copy-9" transform="translate(2.637363, 2.637363) rotate(-397.000000) translate(-2.637363, -2.637363) ">
                        <circle id="Oval" cx="2.63736264" cy="2.63736264" r="2.63736264"></circle>
                    </g>
                </g>
            </g>
        </g>
    </g>
</svg>