<?xml version="1.0" encoding="UTF-8"?>
<svg width="600px" height="600px" viewBox="0 0 600 600" version="1.1" xmlns="http://www.w3.org/2000/svg" xmlns:xlink="http://www.w3.org/1999/xlink">
    <title>love-poems</title>
    <defs>
        <linearGradient x1="50%" y1="0%" x2="50%" y2="100%" id="linearGradient-1">
            <stop stop-color="#1C0D2F" offset="0%"></stop>
            <stop stop-color="#2B1B40" offset="100%"></stop>
        </linearGradient>
    </defs>
    <g id="love-poems" stroke="none" stroke-width="1" fill="none" fill-rule="evenodd">
        <circle id="Oval" fill="url(#linearGradient-1)" cx="300" cy="300" r="240"></circle>
        <g id="fill" transform="translate(109.000000, 182.000000)"></g>
        <g id="stars" opacity="0.382324219" transform="translate(127.000000, 146.000000)" fill="#F5F8FA" stroke="#F5F8FA" stroke-width="0.5">
            <g id="star-point" transform="translate(6.000000, 186.000000)">
                <circle id="Oval" cx="4" cy="4" r="4"></circle>
            </g>
            <g id="star-point" transform="translate(90.000000, 293.000000)">
                <circle id="Oval" cx="4" cy="4" r="4"></circle>
            </g>
            <g id="star-point" transform="translate(25.000000, 214.000000)">
                <circle id="Oval" cx="4" cy="4" r="4"></circle>
            </g>
            <g id="star-point" transform="translate(0.000000, 275.000000)">
                <circle id="Oval" cx="4" cy="4" r="4"></circle>
            </g>
            <g id="star-point" transform="translate(318.000000, 253.000000)">
                <circle id="Oval" cx="4" cy="4" r="4"></circle>
            </g>
            <g id="star-point" transform="translate(319.000000, 0.000000)">
                <circle id="Oval" cx="4" cy="4" r="4"></circle>
            </g>
        </g>
        <path d="M460.529845,234.431293 C453.190287,195.152753 424.566011,172.760314 392.271956,168.355245 C361.81279,164.317264 328.050823,176.064117 306.032149,205.06416 C301.995393,210.570497 299.426547,215.709746 297.591658,222.31735 C295.756768,215.709746 293.187923,210.570497 289.151166,205.06416 C267.132492,176.064117 233.737503,164.317264 202.91136,168.355245 C170.617305,172.760314 141.626051,195.152753 134.653471,234.431293 C126.212979,280.317437 145.662808,308.950391 174.287084,343.823861 C213.186741,391.545451 255.756177,437.064506 297.591658,482.583561 C339.427138,437.064506 381.996575,391.91254 421.26321,343.823861 C449.887486,308.950391 469.337314,280.317437 460.529845,234.431293 Z" id="Path" fill="#B50015"></path>
        <path d="M202.91136,168.355245 C233.737503,164.317264 267.132492,176.064117 289.151166,205.06416 C292.771595,210.002605 295.211282,214.645775 296.999712,220.31778 L296.99984,481.939688 C255.354825,436.635208 213.003327,391.320441 174.287084,343.823861 C145.662808,308.950391 126.212979,280.317437 134.653471,234.431293 C141.626051,195.152753 170.617305,172.760314 202.91136,168.355245 Z" id="Combined-Shape" fill="#870005" opacity="0.349586124"></path>
        <g id="pen" transform="translate(315.885262, 310.207090) rotate(-38.000000) translate(-315.885262, -310.207090) translate(105.385262, 277.707090)">
            <path d="M47.9283696,0.538332357 L95.9471567,21.5383324 L97.7591864,32.5383324 L95.9471567,43.5383324 L47.9283696,64.5383324 L3.76218643,34.5383324 L41.8957526,34.5388416 C42.6421426,36.8689603 44.6556199,38.5383324 47.0223548,38.5383324 C50.0246239,38.5383324 52.4584439,35.8520409 52.4584439,32.5383324 C52.4584439,29.2246239 50.0246239,26.5383324 47.0223548,26.5383324 C44.6552793,26.5383324 42.6415631,28.2081849 41.8954304,30.5388291 L3.75918643,30.5383324 L47.9283696,0.538332357 Z" id="nib" fill="#BAEAFF"></path>
            <polygon id="nib-shadow" fill="#68CFF7" style="mix-blend-mode: darken;" transform="translate(49.287392, 48.538332) scale(1, -1) translate(-49.287392, -48.538332) " points="97.7591864 64.5383324 0.815597336 64.5383324 47.9283696 32.5383324 95.9471567 53.5383324"></polygon>
            <rect id="body" fill="#007EA8" x="89.3082583" y="16.0626442" width="331" height="32" rx="16"></rect>
            <rect id="shadow" fill="#00345C" opacity="0.138113839" x="104.744082" y="16.1855271" width="64" height="32"></rect>
            <path d="M404.308258,16.0626442 C412.445907,16.0626442 419.164639,22.1377473 420.176538,30.0000375 L94,30 L93.9985469,20.7449399 C96.8936611,17.8518577 100.892013,16.0626442 105.308258,16.0626442 L404.308258,16.0626442 Z" id="highlight" fill="#BAEAFF" opacity="0.155459449"></path>
            <rect id="neck-collar" fill="#00345C" x="83.1744119" y="12.1945322" width="22" height="40" rx="3"></rect>
        </g>
        <g id="heart-block-copy" transform="translate(334.875595, 294.726910) rotate(-38.000000) translate(-334.875595, -294.726910) translate(252.875595, 270.226910)">
            <path d="M6.98023915,24.8508043 C6.98023915,35.2845324 11.6904572,44.3385331 18.5895641,48.8506841 C8.54713027,48.0916531 0.589637342,37.6366918 0.589637342,24.8508043 C0.589637342,12.0649168 8.54713027,1.60995549 18.5898101,0.850667236 C11.6904572,5.36307545 6.98023915,14.4170762 6.98023915,24.8508043 Z" id="Combined-Shape" fill="#B50015"></path>
            <rect id="Rectangle" fill="#B50015" x="5.89400538" y="8.30783074" width="145" height="34"></rect>
            <path d="M151.607336,24.9032554 C151.607336,35.3369835 156.317554,44.3909843 163.216661,48.9031352 C153.174227,48.1441042 145.216735,37.689143 145.216735,24.9032554 C145.216735,12.1173679 153.174227,1.66240661 163.216907,0.903118353 C156.317554,5.41552657 151.607336,14.4695273 151.607336,24.9032554 Z" id="Combined-Shape" fill="#870005"></path>
        </g>
        <g id="heart-block-copy" transform="translate(288.776966, 330.743106) rotate(-38.000000) translate(-288.776966, -330.743106) translate(265.276966, 306.243106)" fill="#870005" opacity="0.35">
            <path d="M18.5898101,0.850667236 C15.8106796,2.66831176 13.3867498,5.22285757 11.4827946,8.30765006 L46.4140054,8.30764789 L19.8500054,42.3076479 L12.0731431,42.308839 C13.8780858,44.9853111 16.0901861,47.216042 18.5895641,48.8506841 C13.9467364,48.4997681 9.7495454,46.0764375 6.57829782,42.3084784 L5.89400538,42.3078307 L5.89375784,41.4533333 C2.60767463,37.1373478 0.589637342,31.28964 0.589637342,24.8508043 C0.589637342,12.0649168 8.54713027,1.60995549 18.5898101,0.850667236 Z" id="Combined-Shape"></path>
        </g>
    </g>
</svg>