<?xml version="1.0" encoding="UTF-8"?>
<svg width="600px" height="600px" viewBox="0 0 600 600" version="1.1" xmlns="http://www.w3.org/2000/svg" xmlns:xlink="http://www.w3.org/1999/xlink">
    <title>medical-reports</title>
    <defs>
        <filter id="filter-1">
            <feColorMatrix in="SourceGraphic" type="matrix" values="0 0 0 0 0.960400 0 0 0 0 0.974120 0 0 0 0 0.980000 0 0 0 1.000000 0"></feColorMatrix>
        </filter>
    </defs>
    <g id="medical-reports" stroke="none" stroke-width="1" fill="none" fill-rule="evenodd">
        <circle id="Oval" fill="#0080AB" opacity="0.42296782" cx="300" cy="300" r="240"></circle>
        <g id="medic-fill" transform="translate(182.000000, 133.000000)" fill-rule="nonzero">
            <g id="Group">
                <path d="M210.347826,41 L194.956522,41 C194.956522,32.52325 188.050957,25.625 179.565217,25.625 L169.304348,25.625 L169.304348,15.375 C169.304348,6.89825 162.398783,0 153.913043,0 L82.0869565,0 C73.6012174,0 66.6956522,6.89825 66.6956522,15.375 L66.6956522,25.625 L56.4347826,25.625 C47.9490435,25.625 41.0434783,32.52325 41.0434783,41 L25.6521739,41 C11.5075652,41 0,52.495375 0,66.625 L0,302.375 C0,316.504625 11.5075652,328 25.6521739,328 L210.347826,328 C224.492435,328 236,316.504625 236,302.375 L236,66.625 C236,52.495375 224.492435,41 210.347826,41 Z" id="Shape" fill="#002643"></path>
                <polygon id="Path" fill="#4A6370" points="205.217391 71.75 205.217391 297.25 30.7826087 297.25 30.7826087 71.75"></polygon>
                <path d="M51.3043478,41 C51.3043478,38.176125 53.6027826,35.875 56.4347826,35.875 L71.826087,35.875 C74.6632174,35.875 76.9565217,33.579 76.9565217,30.75 L76.9565217,15.375 C76.9565217,12.551125 79.2549565,10.25 82.0869565,10.25 L153.913043,10.25 C156.745043,10.25 159.043478,12.551125 159.043478,15.375 L159.043478,30.75 C159.043478,33.579 161.336783,35.875 164.173913,35.875 L179.565217,35.875 C182.397217,35.875 184.695652,38.176125 184.695652,41 L184.695652,61.5 L51.3043478,61.5 L51.3043478,41 Z" id="Path" fill="#00204A"></path>
                <path d="M118,46.125 C126.485739,46.125 133.391304,39.22675 133.391304,30.75 C133.391304,22.27325 126.485739,15.375 118,15.375 C109.514261,15.375 102.608696,22.27325 102.608696,30.75 C102.608696,39.22675 109.514261,46.125 118,46.125 Z M118,25.625 C120.832,25.625 123.130435,27.926125 123.130435,30.75 C123.130435,33.573875 120.832,35.875 118,35.875 C115.168,35.875 112.869565,33.573875 112.869565,30.75 C112.869565,27.926125 115.168,25.625 118,25.625 Z" id="Shape" fill="#000000"></path>
            </g>
        </g>
        <g filter="url(#filter-1)" id="medic-outline">
            <g transform="translate(182.000000, 136.000000)" id="Group" fill="#000000" fill-rule="nonzero">
                <path d="M210.347826,41 L194.956522,41 C194.956522,32.52325 188.050957,25.625 179.565217,25.625 L169.304348,25.625 L169.304348,15.375 C169.304348,6.89825 162.398783,0 153.913043,0 L82.0869565,0 C73.6012174,0 66.6956522,6.89825 66.6956522,15.375 L66.6956522,25.625 L56.4347826,25.625 C47.9490435,25.625 41.0434783,32.52325 41.0434783,41 L25.6521739,41 C11.5075652,41 0,52.495375 0,66.625 L0,302.375 C0,316.504625 11.5075652,328 25.6521739,328 L210.347826,328 C224.492435,328 236,316.504625 236,302.375 L236,66.625 C236,52.495375 224.492435,41 210.347826,41 Z M205.217391,71.75 L205.217391,297.25 L30.7826087,297.25 L30.7826087,71.75 L205.217391,71.75 Z M51.3043478,41 C51.3043478,38.176125 53.6027826,35.875 56.4347826,35.875 L71.826087,35.875 C74.6632174,35.875 76.9565217,33.579 76.9565217,30.75 L76.9565217,15.375 C76.9565217,12.551125 79.2549565,10.25 82.0869565,10.25 L153.913043,10.25 C156.745043,10.25 159.043478,12.551125 159.043478,15.375 L159.043478,30.75 C159.043478,33.579 161.336783,35.875 164.173913,35.875 L179.565217,35.875 C182.397217,35.875 184.695652,38.176125 184.695652,41 L184.695652,61.5 L51.3043478,61.5 L51.3043478,41 Z M225.73913,302.375 C225.73913,310.85175 218.833565,317.75 210.347826,317.75 L25.6521739,317.75 C17.1664348,317.75 10.2608696,310.85175 10.2608696,302.375 L10.2608696,66.625 C10.2608696,58.14825 17.1664348,51.25 25.6521739,51.25 L41.0434783,51.25 L41.0434783,61.5 L25.6521739,61.5 C22.8150435,61.5 20.5217391,63.796 20.5217391,66.625 L20.5217391,302.375 C20.5217391,305.204 22.8150435,307.5 25.6521739,307.5 L210.347826,307.5 C213.184957,307.5 215.478261,305.204 215.478261,302.375 L215.478261,66.625 C215.478261,63.796 213.184957,61.5 210.347826,61.5 L194.956522,61.5 L194.956522,51.25 L210.347826,51.25 C218.833565,51.25 225.73913,58.14825 225.73913,66.625 L225.73913,302.375 Z" id="Shape"></path>
                <path d="M118,50.125 C126.485739,50.125 133.391304,43.22675 133.391304,34.75 C133.391304,26.27325 126.485739,19.375 118,19.375 C109.514261,19.375 102.608696,26.27325 102.608696,34.75 C102.608696,43.22675 109.514261,50.125 118,50.125 Z M118.241251,27.375 C122.454422,27.375 125.873807,30.7983871 125.873807,34.9994702 C125.873807,39.2005532 122.454422,42.6239403 118.241251,42.6239403 C114.028081,42.6239403 110.608696,39.2005532 110.608696,34.9994702 C110.608696,30.7983871 114.028081,27.375 118.241251,27.375 Z" id="Shape"></path>
                <path d="M61.5652174,215.25 L174.434783,215.25 C177.271913,215.25 179.565217,212.954 179.565217,210.125 C179.565217,207.296 177.271913,205 174.434783,205 L61.5652174,205 C58.728087,205 56.4347826,207.296 56.4347826,210.125 C56.4347826,212.954 58.728087,215.25 61.5652174,215.25 Z" id="Path"></path>
                <path d="M61.5652174,235.75 L174.434783,235.75 C177.271913,235.75 179.565217,233.454 179.565217,230.625 C179.565217,227.796 177.271913,225.5 174.434783,225.5 L61.5652174,225.5 C58.728087,225.5 56.4347826,227.796 56.4347826,230.625 C56.4347826,233.454 58.728087,235.75 61.5652174,235.75 Z" id="Path"></path>
                <path d="M61.5652174,256.25 L174.434783,256.25 C177.271913,256.25 179.565217,253.954 179.565217,251.125 C179.565217,248.296 177.271913,246 174.434783,246 L61.5652174,246 C58.728087,246 56.4347826,248.296 56.4347826,251.125 C56.4347826,253.954 58.728087,256.25 61.5652174,256.25 Z" id="Path"></path>
                <path d="M61.5652174,276.75 L174.434783,276.75 C177.271913,276.75 179.565217,274.454 179.565217,271.625 C179.565217,268.796 177.271913,266.5 174.434783,266.5 L61.5652174,266.5 C58.728087,266.5 56.4347826,268.796 56.4347826,271.625 C56.4347826,274.454 58.728087,276.75 61.5652174,276.75 Z" id="Path"></path>
            </g>
        </g>
        <g id="Group-2" transform="translate(270.000000, 252.000000)">
            <circle id="Oval" fill="#F5F8FA" cx="30" cy="30" r="30"></circle>
            <line x1="30" y1="15.7377049" x2="30" y2="45.2459016" id="Line" stroke="#B50015" stroke-width="12" stroke-linecap="square"></line>
            <line x1="15.5555556" y1="30.1664481" x2="45.183315" y2="29.8335519" id="Line" stroke="#B50015" stroke-width="12" stroke-linecap="square" transform="translate(30.369435, 30.000000) rotate(0.643746) translate(-30.369435, -30.000000) "></line>
        </g>
    </g>
</svg>