<?xml version="1.0" encoding="UTF-8"?>
<svg width="600px" height="600px" viewBox="0 0 600 600" version="1.1" xmlns="http://www.w3.org/2000/svg" xmlns:xlink="http://www.w3.org/1999/xlink">
    <title>midsummer-nights-dream</title>
    <defs>
        <linearGradient x1="50%" y1="0%" x2="50%" y2="100%" id="linearGradient-1">
            <stop stop-color="#1C0D2F" offset="0%"></stop>
            <stop stop-color="#2B1B40" offset="100%"></stop>
        </linearGradient>
        <filter id="filter-2">
            <feColorMatrix in="SourceGraphic" type="matrix" values="0 0 0 0 0.920000 0 0 0 0 0.973333 0 0 0 0 1.000000 0 0 0 1.000000 0"></feColorMatrix>
        </filter>
    </defs>
    <g id="midsummer-nights-dream" stroke="none" stroke-width="1" fill="none" fill-rule="evenodd">
        <circle id="Oval" fill="url(#linearGradient-1)" cx="300" cy="300" r="240"></circle>
        <g filter="url(#filter-2)" id="emojione-monotone:crescent-moon" opacity="0.35">
            <g transform="translate(146.000000, 373.000000) scale(-1, 1) translate(-146.000000, -373.000000) translate(101.000000, 328.000000)">
                <g id="Icon" transform="translate(2.000000, 2.000000)" fill="#000000" fill-rule="nonzero">
                    <path d="M58.748972,0.58423913 C63.4751177,7.58038282 65.9969813,15.8319637 65.9893424,24.2748554 C65.9893424,47.8877095 46.6392723,67.0299424 22.7676821,67.0299424 C14.9630734,67.0444209 7.29935598,64.9512964 0.585652989,60.9715579 C7.94902908,75.4664372 23.1070082,85.4157609 40.6218897,85.4157609 C65.3615891,85.4157609 85.4157609,65.5779095 85.4157609,41.1054293 C85.4157609,23.0179351 74.4527005,7.47114484 58.748972,0.58423913 Z" id="Icon-Path"></path>
                </g>
                <rect id="ViewBox" fill-rule="nonzero" x="0" y="0" width="90" height="90"></rect>
            </g>
        </g>
        <g id="stars" opacity="0.382324219" transform="translate(132.000000, 110.000000)" fill="#F5F8FA" stroke="#F5F8FA" stroke-width="0.5">
            <g id="star-point" transform="translate(0.000000, 162.000000)">
                <circle id="Oval" cx="4" cy="4" r="4"></circle>
            </g>
            <g id="star-point" transform="translate(289.000000, 250.000000)">
                <circle id="Oval" cx="4" cy="4" r="4"></circle>
            </g>
            <g id="star-point" transform="translate(140.000000, 57.000000)">
                <circle id="Oval" cx="4" cy="4" r="4"></circle>
            </g>
            <g id="star-point" transform="translate(40.000000, 220.000000)">
                <circle id="Oval" cx="4" cy="4" r="4"></circle>
            </g>
            <g id="star-point" transform="translate(290.000000, 310.000000)">
                <circle id="Oval" cx="4" cy="4" r="4"></circle>
            </g>
            <g id="star-point" transform="translate(199.000000, 0.000000)">
                <circle id="Oval" cx="4" cy="4" r="4"></circle>
            </g>
        </g>
        <g id="nose" transform="translate(264.000000, 419.000000)">
            <rect id="Rectangle" fill="#00345C" x="0" y="0" width="84" height="76" rx="38"></rect>
            <circle id="Oval" fill="#00204A" cx="24.5" cy="51.5" r="7.5"></circle>
            <circle id="Oval-Copy" fill="#00204A" cx="61.5" cy="51.5" r="7.5"></circle>
        </g>
        <path d="M310,419 C318.191487,419 325.777605,421.591897 331.98298,426.000318 L304,426 L304,495 L302,495 C281.01318,495 264,477.98682 264,457 C264,436.01318 281.01318,419 302,419 L310,419 Z" id="Combined-Shape" fill="#00204A" opacity="0.35"></path>
        <polygon id="Path-6" fill="#30B8F2" points="308.810597 280.897834 308.810597 448.897834 264.982472 448.897834 231.779347 402.636965 239.748097 364.897834 223.810597 332.028269 264.982472 280.897834"></polygon>
        <polygon id="Path-6" fill="#30B8F2" transform="translate(346.310597, 364.897834) scale(-1, 1) translate(-346.310597, -364.897834) " points="388.810597 280.897834 388.810597 448.897834 344.982472 448.897834 311.779347 402.636965 319.748097 364.897834 303.810597 332.028269 344.982472 280.897834"></polygon>
        <g id="left-ear" transform="translate(246.601947, 296.955937) rotate(-16.000000) translate(-246.601947, -296.955937) translate(182.101947, 133.455937)">
            <path d="M70,5.68434189e-13 C96.6666667,42.6666667 109.666667,77 109,103 C108.333333,129 100.666667,167 86,217 L62.512,206.235 L39.0243902,217 C24.5043902,167.5 16.8450902,129.7612 16.0464902,103.7836 L16.0243902,103 C15.3577236,77 28.3577236,42.6666667 55.0243902,5.68434189e-13 L55.0243902,5.68434189e-13 L70,5.68434189e-13 Z" id="Combined-Shape" fill="#30B8F2"></path>
            <g id="Group" transform="translate(0.000000, 0.000000)" fill="#00AAEE">
                <polygon id="Path-6" transform="translate(64.871751, 234.392798) rotate(16.000000) translate(-64.871751, -234.392798) " points="107.371751 150.392798 107.371751 318.392798 63.5436255 318.392798 30.3405005 272.131928 38.3092505 234.392798 22.3717505 201.523233 63.5436255 150.392798"></polygon>
                <path d="M70,0 C96.6666667,42.6666667 109.666667,77 109,103 C108.333333,129 100.666667,167 86,217 L62.512,206.235 L39.0243902,217 C24.5043902,167.5 16.8450902,129.7612 16.0464902,103.7836 L16.0243902,103 C15.3577236,77 28.3577236,42.6666667 55.0243902,0 L55.0243902,0 L70,0 Z" id="Combined-Shape"></path>
            </g>
            <path d="M48.7095436,182 C39.9764869,152.046083 35.4114799,129.281106 35.0145228,113.705069 C34.6175657,98.1290323 42.3582296,77.5606759 58.2365145,52 L58.2365145,52 L67.7634855,52 C83.6417704,77.5606759 91.3824343,98.1290323 90.9854772,113.705069 C90.5885201,129.281106 86.0235131,152.046083 77.2904564,182 L63,175.410138 Z" id="Combined-Shape" fill="#B50015"></path>
            <path d="M49.2562918,116.522499 C50.371882,133.323499 53.635508,153.560368 59.0471697,177.233107 L51.595,180.669 L48.2900426,180.555582 C39.8302478,151.313271 35.4050745,129.029767 35.0145228,113.705069 C34.621658,98.28961 42.1994932,77.9842351 57.7480282,52.7889446 L58.2365145,52 L61.9256095,52.000331 C52.4096501,78.9045094 48.1865442,100.411899 49.2562918,116.522499 Z" id="Combined-Shape" fill="#870005" opacity="0.379859561"></path>
            <rect id="Rectangle-Copy-2" fill="#00AAEE" x="41.2756374" y="175.038738" width="43" height="22"></rect>
        </g>
        <g id="right-ear" transform="translate(383.101947, 244.500000) scale(-1, 1) rotate(-16.000000) translate(-383.101947, -244.500000) translate(336.101947, 136.000000)">
            <path d="M54,4.54747351e-13 C80.6666667,42.6666667 93.6666667,77 93,103 C92.3333333,129 84.6666667,167 70,217 L46.512,206.235 L23.0243902,217 C8.50439024,167.5 0.845090244,129.7612 0.0464902439,103.7836 L0.0243902439,103 C-0.642276423,77 12.3577236,42.6666667 39.0243902,4.54747351e-13 L39.0243902,4.54747351e-13 L54,4.54747351e-13 Z" id="Combined-Shape" fill="#30B8F2"></path>
            <path d="M32.7095436,182 C23.9764869,152.046083 19.4114799,129.281106 19.0145228,113.705069 C18.6175657,98.1290323 26.3582296,77.5606759 42.2365145,52 L42.2365145,52 L51.7634855,52 C67.6417704,77.5606759 75.3824343,98.1290323 74.9854772,113.705069 C74.5885201,129.281106 70.0235131,152.046083 61.2904564,182 L47,175.410138 Z" id="Combined-Shape" fill="#B50015"></path>
            <path d="M33.2562918,116.522499 C34.371882,133.323499 37.635508,153.560368 43.0471697,177.233107 L35.595,180.669 L32.2900426,180.555582 C23.8302478,151.313271 19.4050745,129.029767 19.0145228,113.705069 C18.621658,98.28961 26.1994932,77.9842351 41.7480282,52.7889446 L42.2365145,52 L45.9256095,52.000331 C36.4096501,78.9045094 32.1865442,100.411899 33.2562918,116.522499 Z" id="Combined-Shape" fill="#870005" opacity="0.379859561"></path>
            <rect id="Rectangle-Copy-2" fill="#30B8F2" x="25.2756374" y="175.038738" width="43" height="22"></rect>
        </g>
        <circle id="Oval" fill="#00345C" cx="270.310597" cy="367.397834" r="7.5"></circle>
        <circle id="Oval-Copy-2" fill="#00345C" cx="343.310597" cy="367.397834" r="7.5"></circle>
        <path d="M286.398347,256 L329.653984,256 C331.310838,256 332.653984,257.343146 332.653984,259 C332.653984,259.108969 332.648047,259.217857 332.636199,259.32618 L326.292449,317.32618 C326.126031,318.84772 324.840848,320 323.310234,320 L293.648347,320 C292.135377,320 290.859174,318.873391 290.671513,317.372104 L283.421513,259.372104 C283.216006,257.728044 284.382183,256.228674 286.026242,256.023166 C286.149677,256.007737 286.273952,256 286.398347,256 Z" id="Rectangle-Copy" fill="#00345C"></path>
        <path d="M304.999031,256 L304.999031,320 L293.648347,320 C292.135377,320 290.859174,318.873391 290.671513,317.372104 L283.421513,259.372104 C283.216006,257.728044 284.382183,256.228674 286.026242,256.023166 C286.149677,256.007737 286.273952,256 286.398347,256 L304.999031,256 Z" id="Combined-Shape" fill="#00204A" opacity="0.35"></path>
        <rect id="Rectangle" fill="#00345C" x="285" y="432" width="41" height="20" rx="3"></rect>
        <path d="M304,432 L304,452 L288,452 C286.343146,452 285,450.656854 285,449 L285,435 C285,433.343146 286.343146,432 288,432 L304,432 Z" id="Combined-Shape" fill="#00204A" opacity="0.35"></path>
    </g>
</svg>