<?xml version="1.0" encoding="UTF-8"?>
<svg width="428px" height="89px" viewBox="0 0 428 89" version="1.1" xmlns="http://www.w3.org/2000/svg" xmlns:xlink="http://www.w3.org/1999/xlink">
    <title>wordmark copy 5</title>
    <g id="wordmark-copy-5" stroke="none" stroke-width="1" fill="none" fill-rule="evenodd">
        <path d="M45.7503448,65.72 C57.3303448,65.72 64.7703448,56.6 64.7703448,45.02 C64.7703448,33.44 57.3303448,24.32 45.7503448,24.32 C34.1103448,24.32 26.7303448,33.44 26.7303448,45.02 C26.7303448,56.6 34.1103448,65.72 45.7503448,65.72 Z M45.7503448,63.92 C35.3703448,63.92 28.8303448,55.88 28.8303448,45.02 C28.8303448,34.04 35.3703448,26.12 45.7503448,26.12 C56.0103448,26.12 62.6703448,34.04 62.6703448,45.02 C62.6703448,55.88 56.0103448,63.92 45.7503448,63.92 Z M79.0482759,65.12 C79.5882759,65.12 80.0082759,64.64 80.0082759,64.16 L80.0082759,47.66 L91.9482759,47.66 C99.2682759,47.66 103.648276,42.44 103.648276,36.32 C103.648276,30.2 99.3882759,24.98 91.9482759,24.98 L79.1682759,24.98 C78.5082759,24.98 78.0882759,25.4 78.0882759,26.06 L78.0882759,64.16 C78.0882759,64.64 78.5082759,65.12 79.0482759,65.12 Z M91.8882759,45.86 L80.0082759,45.86 L80.0082759,26.78 L91.8882759,26.78 C97.7682759,26.78 101.548276,30.8 101.548276,36.32 C101.548276,41.84 97.7682759,45.86 91.8882759,45.86 Z M139.226207,65 C139.706207,65 140.126207,64.58 140.126207,64.1 C140.126207,63.62 139.706207,63.2 139.226207,63.2 L117.446207,63.2 L117.446207,45.32 L138.806207,45.32 C139.286207,45.32 139.706207,44.9 139.706207,44.42 C139.706207,43.94 139.286207,43.52 138.806207,43.52 L117.446207,43.52 L117.446207,26.78 L139.226207,26.78 C139.706207,26.78 140.126207,26.36 140.126207,25.88 C140.126207,25.4 139.706207,24.98 139.226207,24.98 L116.606207,24.98 C115.946207,24.98 115.526207,25.4 115.526207,26.06 L115.526207,63.92 C115.526207,64.58 115.946207,65 116.606207,65 L139.226207,65 Z M182.784138,65.12 C183.444138,65.12 183.984138,64.52 183.984138,63.86 L183.984138,25.82 C183.984138,25.34 183.564138,24.86 183.024138,24.86 C182.484138,24.86 182.064138,25.34 182.064138,25.82 L182.064138,61.52 L155.364138,25.4 C155.184138,25.1 154.764138,24.86 154.344138,24.86 C153.684138,24.86 153.144138,25.46 153.144138,26.12 L153.144138,64.16 C153.144138,64.64 153.564138,65.12 154.104138,65.12 C154.644138,65.12 155.064138,64.64 155.064138,64.16 L155.064138,28.1 L181.764138,64.58 C181.944138,64.88 182.364138,65.12 182.784138,65.12 Z M229.88,65.12 C230.42,65.12 230.84,64.64 230.84,64.16 L230.84,26.78 L243.62,26.78 C244.1,26.78 244.52,26.36 244.52,25.88 C244.52,25.4 244.1,24.98 243.62,24.98 L216.2,24.98 C215.72,24.98 215.3,25.4 215.3,25.88 C215.3,26.36 215.72,26.78 216.2,26.78 L228.92,26.78 L228.92,64.16 C228.92,64.64 229.34,65.12 229.88,65.12 Z M279.797931,65 C280.277931,65 280.697931,64.58 280.697931,64.1 C280.697931,63.62 280.277931,63.2 279.797931,63.2 L258.017931,63.2 L258.017931,45.32 L279.377931,45.32 C279.857931,45.32 280.277931,44.9 280.277931,44.42 C280.277931,43.94 279.857931,43.52 279.377931,43.52 L258.017931,43.52 L258.017931,26.78 L279.797931,26.78 C280.277931,26.78 280.697931,26.36 280.697931,25.88 C280.697931,25.4 280.277931,24.98 279.797931,24.98 L257.177931,24.98 C256.517931,24.98 256.097931,25.4 256.097931,26.06 L256.097931,63.92 C256.097931,64.58 256.517931,65 257.177931,65 L279.797931,65 Z M323.235862,65.12 C323.775862,65.12 324.255862,64.64 324.255862,64.1 C324.255862,63.86 324.135862,63.68 324.015862,63.5 L308.655862,44.42 L323.055862,26.48 C323.175862,26.3 323.295862,26.12 323.295862,25.88 C323.295862,25.34 322.875862,24.86 322.275862,24.86 C321.975862,24.86 321.675862,25.04 321.495862,25.28 L307.575862,42.98 L293.655862,25.28 C293.475862,25.04 293.175862,24.86 292.875862,24.86 C292.275862,24.86 291.855862,25.34 291.855862,25.88 C291.855862,26.12 291.915862,26.36 292.035862,26.54 L306.495862,44.48 L291.135862,63.5 C291.015862,63.68 290.895862,63.92 290.895862,64.1 C290.895862,64.64 291.375862,65.12 291.915862,65.12 C292.215862,65.12 292.515862,64.94 292.695862,64.76 L307.575862,45.86 L322.455862,64.76 C322.635862,64.94 322.935862,65.12 323.235862,65.12 Z M347.593793,65.12 C348.133793,65.12 348.553793,64.64 348.553793,64.16 L348.553793,26.78 L361.333793,26.78 C361.813793,26.78 362.233793,26.36 362.233793,25.88 C362.233793,25.4 361.813793,24.98 361.333793,24.98 L333.913793,24.98 C333.433793,24.98 333.013793,25.4 333.013793,25.88 C333.013793,26.36 333.433793,26.78 333.913793,26.78 L346.633793,26.78 L346.633793,64.16 C346.633793,64.64 347.053793,65.12 347.593793,65.12 Z M385.691724,65.72 C396.491724,65.72 399.371724,59.36 399.371724,54.86 C399.371724,47.5223529 393.552126,45.2317907 387.590901,43.4554797 L387.022919,43.287717 C386.738895,43.204468 386.454959,43.1220588 386.171724,43.04 C380.471724,41.42 375.071724,39.92 375.071724,34.52 C375.071724,29.6 379.691724,26.12 385.511724,26.12 C389.771724,26.12 393.551724,27.44 396.371724,30.62 C396.551724,30.86 396.851724,30.98 397.151724,30.98 C397.691724,30.98 398.171724,30.5 398.171724,29.96 C398.171724,29.72 398.051724,29.48 397.871724,29.3 C394.991724,26.18 390.971724,24.32 385.511724,24.32 C378.911724,24.32 372.971724,28.04 372.971724,34.52 C372.971724,40.9446154 378.390896,42.9214201 384.085352,44.5560856 L384.940942,44.7992326 C385.131246,44.8529231 385.32157,44.9064615 385.511724,44.96 C391.451724,46.64 397.271724,48.38 397.271724,54.86 C397.271724,58.64 394.931724,63.92 385.691724,63.92 C380.411724,63.92 376.451724,61.46 373.871724,58.7 C373.691724,58.46 373.391724,58.34 373.091724,58.34 C372.551724,58.34 372.071724,58.82 372.071724,59.42 C372.071724,59.66 372.131724,59.9 372.311724,60.08 C375.311724,63.38 379.931724,65.72 385.691724,65.72 Z" id="OPENTEXTS" fill="#0080AB" fill-rule="nonzero"></path>
    </g>
</svg>