<?xml version="1.0" encoding="UTF-8"?>
<svg width="600px" height="600px" viewBox="0 0 600 600" version="1.1" xmlns="http://www.w3.org/2000/svg" xmlns:xlink="http://www.w3.org/1999/xlink">
    <title>recipe-books</title>
    <defs>
        <filter id="filter-1">
            <feColorMatrix in="SourceGraphic" type="matrix" values="0 0 0 0 0.960400 0 0 0 0 0.974120 0 0 0 0 0.980000 0 0 0 1.000000 0"></feColorMatrix>
        </filter>
    </defs>
    <g id="recipe-books" stroke="none" stroke-width="1" fill="none" fill-rule="evenodd">
        <circle id="Oval" fill="#0080AB" opacity="0.42296782" cx="300" cy="300" r="240"></circle>
        <g id="cookbook-fill" transform="translate(147.000000, 156.000000)">
            <rect id="Rectangle" fill="#00204A" x="29" y="0" width="253" height="302"></rect>
            <g id="Group" transform="translate(0.000000, 35.000000)">
                <polygon id="Path-2" fill="#002643" points="4 44 4 233 131 233 153 223 180 233 305 233 305 44 220 0 155 29 80 0"></polygon>
                <path d="M82.609375,179.671875 C116.522953,179.671875 146.354656,197.073297 155.5,202.996875 C164.645344,197.092734 194.477047,179.671875 228.390625,179.671875 C248.417915,179.493179 268.267515,183.439942 286.703125,191.266344 L286.703125,31.3588906 C279.51125,25.7317344 250.495922,4.734375 218.671875,4.734375 C182.649328,4.734375 159.455531,31.8739844 159.232,32.1509688 C158.276055,33.2023334 156.920985,33.8017085 155.5,33.8017085 C154.079015,33.8017085 152.723945,33.2023334 151.768,32.1509688 C151.544469,31.8739844 128.350672,4.734375 92.328125,4.734375 C60.5040781,4.734375 31.48875,25.7317344 24.296875,31.3588906 L24.296875,191.266344 C42.7324848,183.439942 62.582085,179.493179 82.609375,179.671875 Z" id="Path" fill="#4A6370" fill-rule="nonzero"></path>
                <path d="M174.9375,237.984375 C172.253741,237.984375 170.078125,235.808759 170.078125,233.125 C170.078125,231.915016 164.90775,228.265625 155.499999,228.265625 C146.09225,228.265625 140.921875,231.915016 140.921875,233.125 C140.915605,235.092495 139.723547,236.862048 137.902546,237.607052 C136.081545,238.352055 133.991008,237.925468 132.607484,236.526563 C132.379094,236.31275 109.569187,213.6875 77.75,213.6875 C45.0415469,213.6875 6.94890625,227.813703 6.56501562,227.959484 C5.07224745,228.519048 3.3999582,228.310826 2.08998911,227.402283 C0.780020022,226.493741 -9.51013021e-07,225.000448 -9.51013021e-07,223.40625 L-9.51013021e-07,43.609375 C-9.51013021e-07,41.9849902 0.811176829,40.4679085 2.16242187,39.566375 L16.7405469,29.847625 L22.1344531,37.933625 L9.71875,46.2091406 L9.71875,216.603125 C31.6561219,209.088044 54.5771543,204.83128 77.75,203.96875 C98.5975816,204.493572 118.657071,212.043063 134.677578,225.393734 C140.500696,220.556589 147.942525,218.109556 155.499999,218.546875 C163.057475,218.109556 170.499304,220.556589 176.322422,225.393734 C192.342929,212.043063 212.402418,204.493572 233.25,203.96875 C256.422846,204.83128 279.343878,209.088044 301.28125,216.603125 L301.28125,46.2091406 L288.865547,37.9482031 L294.259453,29.8622031 L308.837578,39.5809531 C310.184535,40.4796162 310.99538,41.9901569 310.999999,43.609375 L310.999999,223.40625 C310.999999,225.000448 310.21998,226.493741 308.910011,227.402283 C307.600042,228.310826 305.927753,228.519048 304.434984,227.959484 C304.051094,227.813703 265.958453,213.6875 233.25,213.6875 C201.430812,213.6875 178.620906,236.31275 178.392516,236.526563 C177.482283,237.455198 176.237835,237.980282 174.9375,237.984375 Z" id="Path" fill="#F91A1A" fill-rule="nonzero"></path>
                <path d="M108.023906,82.484375 L81.1126875,82.484375 C68.5414844,82.484375 58.3125,69.85 58.3125,54.3 C58.3125,42.4771406 67.8222969,33.890625 80.9183125,33.890625 C90.4912812,33.890625 101.672703,37.1998594 101.672703,46.525 C104.103908,47.8024236 106.912936,48.164545 109.588625,47.5454688 C109.81413,47.514805 110.041363,47.498574 110.268937,47.496875 C119.026737,48.1629325 125.918124,55.2459784 126.34383,64.01875 C126.373355,74.1724109 118.177483,82.4335023 108.023906,82.484375 Z" id="Path" fill="#0080AB" fill-rule="nonzero"></path>
                <path d="M87.46875,160.234375 C71.3728596,160.218303 58.3285718,147.174015 58.3125,131.078125 C58.3125,116.320203 69.7563281,106.78125 87.46875,106.78125 C105.181172,106.78125 116.625,116.320203 116.625,131.078125 C116.608928,147.174015 103.56464,160.218303 87.46875,160.234375 Z" id="Shape" fill="#B50015" fill-rule="nonzero"></path>
                <path d="M228.390625,155.375 C213.263391,155.375 184.65625,146.234516 184.65625,111.640625 C184.65625,108.956866 186.831866,106.78125 189.515625,106.78125 C204.642859,106.78125 233.25,115.921734 233.25,150.515625 C233.25,153.199384 231.074384,155.375 228.390625,155.375 Z" id="Shape" fill="#0080AB" fill-rule="nonzero"></path>
                <path d="M272.125,155.375 C256.997766,155.375 228.390625,146.234516 228.390625,111.640625 C228.390625,108.956866 230.566241,106.78125 233.25,106.78125 C248.377234,106.78125 276.984375,115.921734 276.984375,150.515625 C276.984375,153.199384 274.808759,155.375 272.125,155.375 Z" id="Shape" fill="#B50015" fill-rule="nonzero"></path>
            </g>
        </g>
        <g filter="url(#filter-1)" id="cookbook-outline">
            <g transform="translate(145.000000, 152.000000)" id="Group" fill="#000000" fill-rule="nonzero">
                <path d="M281.84375,38.875 L272.125,38.875 L272.125,9.71875 L38.875,9.71875 L38.875,38.875 L29.15625,38.875 L29.15625,4.859375 C29.15625,2.17561629 31.3318663,0 34.015625,0 L276.984375,0 C279.668134,0 281.84375,2.17561629 281.84375,4.859375 L281.84375,38.875 Z" id="Path"></path>
                <path d="M276.984375,311 L34.015625,311 C31.3318663,311 29.15625,308.824384 29.15625,306.140625 L29.15625,272.125 L38.875,272.125 L38.875,301.28125 L272.125,301.28125 L272.125,272.125 L281.84375,272.125 L281.84375,306.140625 C281.84375,308.824384 279.668134,311 276.984375,311 Z" id="Path"></path>
                <path d="M136.0625,276.984375 L4.859375,276.984375 C2.17561629,276.984375 0,274.808759 0,272.125 L0,262.40625 L9.71875,262.40625 L9.71875,267.265625 L136.0625,267.265625 L136.0625,276.984375 Z" id="Path"></path>
                <path d="M155.5,252.687502 C154.487732,252.687502 153.50069,252.371647 152.676703,251.783656 C152.351125,251.550406 119.399703,228.390625 82.609375,228.390625 C61.5517709,227.989335 40.7170226,232.757951 21.9303594,242.278719 C20.4291714,243.175876 18.5616876,243.197176 17.0404275,242.334492 C15.5191673,241.471808 14.578125,239.858219 14.578125,238.109375 L14.578125,68.03125 C14.578125,66.6124951 15.2007449,65.2651749 16.2789062,64.3429844 C17.7172812,63.1038438 52.1216563,34.015625 92.328125,34.015625 C116.068025,34.5212291 138.697178,44.1682111 155.5,60.9462813 C172.302822,44.1682111 194.931975,34.5212291 218.671875,34.015625 C258.878344,34.015625 293.282719,63.1038437 294.721094,64.3429844 C295.799255,65.2651749 296.421875,66.6124951 296.421875,68.03125 L296.421875,238.109375 C296.421875,239.858219 295.480833,241.471808 293.959573,242.334492 C292.438312,243.197176 290.570829,243.175876 289.069641,242.278719 C270.282977,232.757951 249.448229,227.989335 228.390625,228.390625 C191.49825,228.390625 158.648875,251.550406 158.323297,251.778797 C157.500934,252.370584 156.51316,252.687502 155.5,252.687502 L155.5,252.687502 Z M82.609375,218.671875 C116.522953,218.671875 146.354656,236.073297 155.5,241.996875 C164.645344,236.092734 194.477047,218.671875 228.390625,218.671875 C248.417915,218.493179 268.267515,222.439942 286.703125,230.266344 L286.703125,70.3588906 C279.51125,64.7317344 250.495922,43.734375 218.671875,43.734375 C182.649328,43.734375 159.455531,70.8739844 159.232,71.1509688 C158.276055,72.2023334 156.920985,72.8017085 155.5,72.8017085 C154.079015,72.8017085 152.723945,72.2023334 151.768,71.1509688 C151.544469,70.8739844 128.350672,43.734375 92.328125,43.734375 C60.5040781,43.734375 31.48875,64.7317344 24.296875,70.3588906 L24.296875,230.266344 C42.7324848,222.439942 62.582085,218.493179 82.609375,218.671875 Z" id="Shape"></path>
                <path d="M306.140625,276.984375 L174.9375,276.984375 L174.9375,267.265625 L301.28125,267.265625 L301.28125,262.40625 L311,262.40625 L311,272.125 C311,274.808759 308.824384,276.984375 306.140625,276.984375 Z" id="Path"></path>
                <path d="M174.9375,276.984375 C172.253741,276.984375 170.078125,274.808759 170.078125,272.125 C170.078125,270.915016 164.90775,267.265625 155.499999,267.265625 C146.09225,267.265625 140.921875,270.915016 140.921875,272.125 C140.915605,274.092495 139.723547,275.862048 137.902546,276.607052 C136.081545,277.352055 133.991008,276.925468 132.607484,275.526563 C132.379094,275.31275 109.569187,252.6875 77.75,252.6875 C45.0415469,252.6875 6.94890625,266.813703 6.56501562,266.959484 C5.07224745,267.519048 3.3999582,267.310826 2.08998911,266.402283 C0.780020022,265.493741 -9.51012984e-07,264.000448 -9.51012984e-07,262.40625 L-9.51012984e-07,82.609375 C-9.51012984e-07,80.9849902 0.811176829,79.4679085 2.16242187,78.566375 L16.7405469,68.847625 L22.1344531,76.933625 L9.71875,85.2091406 L9.71875,255.603125 C31.6561219,248.088044 54.5771543,243.83128 77.75,242.96875 C98.5975816,243.493572 118.657071,251.043063 134.677578,264.393734 C140.500696,259.556589 147.942525,257.109556 155.499999,257.546875 C163.057475,257.109556 170.499304,259.556589 176.322422,264.393734 C192.342929,251.043063 212.402418,243.493572 233.25,242.96875 C256.422846,243.83128 279.343878,248.088044 301.28125,255.603125 L301.28125,85.2091406 L288.865547,76.9482031 L294.259453,68.8622031 L308.837578,78.5809531 C310.184535,79.4796162 310.99538,80.9901569 310.999999,82.609375 L310.999999,262.40625 C310.999999,264.000448 310.21998,265.493741 308.910011,266.402283 C307.600042,267.310826 305.927753,267.519048 304.434984,266.959484 C304.051094,266.813703 265.958453,252.6875 233.25,252.6875 C201.430812,252.6875 178.620906,275.31275 178.392516,275.526563 C177.482283,276.455198 176.237835,276.980282 174.9375,276.984375 Z" id="Path"></path>
                <rect id="Rectangle" x="150.640625" y="68.03125" width="9.71875" height="179.796875"></rect>
                <path d="M179.796875,213.8125 L170.078125,213.8125 L170.078125,51.0234375 C170.078125,49.6815581 168.990317,48.59375 167.648438,48.59375 C166.306558,48.59375 165.21875,49.6815581 165.21875,51.0234375 L165.21875,63.171875 L155.5,63.171875 L155.5,51.0234375 C155.5,44.3140407 160.939041,38.875 167.648438,38.875 C174.357834,38.875 179.796875,44.3140407 179.796875,51.0234375 L179.796875,213.8125 Z" id="Path"></path>
                <path d="M108.023906,121.484375 L81.1126875,121.484375 C68.5414844,121.484375 58.3125,108.85 58.3125,93.3 C58.3125,81.4771406 67.8222969,72.890625 80.9183125,72.890625 C90.4912812,72.890625 101.672703,76.1998594 101.672703,85.525 C104.103908,86.8024236 106.912936,87.164545 109.588625,86.5454688 C109.81413,86.514805 110.041363,86.498574 110.268937,86.496875 C119.026737,87.1629325 125.918124,94.2459784 126.34383,103.01875 C126.373355,113.172411 118.177483,121.433502 108.023906,121.484375 Z M80.9183125,82.609375 C73.0898594,82.609375 68.03125,86.8030156 68.03125,93.3 C68.03125,103.310312 74.0228594,111.765625 81.1126875,111.765625 L108.023906,111.765625 C112.811091,111.717539 116.657372,107.806067 116.625203,103.01875 C116.171003,99.7055737 113.736705,97.0072224 110.487609,96.215625 C105.218011,97.1075571 99.8058614,95.9796645 95.3312187,93.0570312 C93.1252793,91.1771956 91.877187,88.4082137 91.9296562,85.5104219 C91.9539531,84.4510781 86.496875,82.609375 80.9183125,82.609375 Z" id="Shape"></path>
                <rect id="Rectangle" x="77.75" y="87.46875" width="9.71875" height="9.71875"></rect>
                <path d="M87.46875,199.234375 C71.3728596,199.218303 58.3285718,186.174015 58.3125,170.078125 C58.3125,155.320203 69.7563281,145.78125 87.46875,145.78125 C105.181172,145.78125 116.625,155.320203 116.625,170.078125 C116.608928,186.174015 103.56464,199.218303 87.46875,199.234375 Z M87.46875,155.5 C81.6375,155.5 68.03125,156.918937 68.03125,170.078125 C68.03125,180.81316 76.7337152,189.515625 87.46875,189.515625 C98.2037848,189.515625 106.90625,180.81316 106.90625,170.078125 C106.90625,156.918937 93.3,155.5 87.46875,155.5 Z" id="Shape"></path>
                <rect id="Rectangle" x="82.609375" y="131.203125" width="9.71875" height="19.4375"></rect>
                <path d="M92.328125,150.640625 L82.609375,150.640625 C82.609375,142.331094 93.0521719,136.0625 106.90625,136.0625 L106.90625,145.78125 C97.4985,145.78125 92.328125,149.430641 92.328125,150.640625 Z" id="Path"></path>
                <path d="M92.328125,150.640625 L82.609375,150.640625 C82.609375,149.182813 82.609375,145.78125 68.03125,145.78125 L68.03125,136.0625 C74.0374375,136.0625 92.328125,136.0625 92.328125,150.640625 Z" id="Path"></path>
                <path d="M270.322172,101.701859 C255.341637,96.0434024 239.535418,92.8769056 223.53125,92.328125 C201.008047,92.328125 191.775234,96.6335312 191.687766,96.6772656 L187.343484,87.9789844 C187.785687,87.7651719 198.374266,82.609375 223.53125,82.609375 C240.77483,83.1208769 257.810294,86.5227133 273.927828,92.6731406 L270.322172,101.701859 Z" id="Path"></path>
                <path d="M270.322172,116.279984 C255.341637,110.621527 239.535418,107.455031 223.53125,106.90625 C201.008047,106.90625 191.775234,111.211656 191.687766,111.255391 L187.343484,102.557109 C187.785687,102.343297 198.374266,97.1875 223.53125,97.1875 C240.77483,97.6990019 257.810294,101.100838 273.927828,107.251266 L270.322172,116.279984 Z" id="Path"></path>
                <path d="M270.322172,130.858109 C255.341637,125.199652 239.535418,122.033156 223.53125,121.484375 C201.008047,121.484375 191.775234,125.789781 191.687766,125.833516 L187.343484,117.135234 C187.785687,116.921422 198.374266,111.765625 223.53125,111.765625 C240.77483,112.277127 257.810294,115.678963 273.927828,121.829391 L270.322172,130.858109 Z" id="Path"></path>
                <path d="M228.390625,194.375 C213.263391,194.375 184.65625,185.234516 184.65625,150.640625 C184.65625,147.956866 186.831866,145.78125 189.515625,145.78125 C204.642859,145.78125 233.25,154.921734 233.25,189.515625 C233.25,192.199384 231.074384,194.375 228.390625,194.375 Z M194.676281,155.985937 C196.239341,170.995464 208.201367,182.802773 223.229969,184.170312 C221.666909,169.160786 209.704883,157.353477 194.676281,155.985937 L194.676281,155.985937 Z" id="Shape"></path>
                <polygon id="Rectangle" transform="translate(208.954723, 170.078833) rotate(-45.000000) translate(-208.954723, -170.078833) " points="204.095348 142.589349 213.814098 142.589349 213.814098 197.568318 204.095348 197.568318"></polygon>
                <path d="M272.125,194.375 C256.997766,194.375 228.390625,185.234516 228.390625,150.640625 C228.390625,147.956866 230.566241,145.78125 233.25,145.78125 C248.377234,145.78125 276.984375,154.921734 276.984375,189.515625 C276.984375,192.199384 274.808759,194.375 272.125,194.375 Z M238.410656,155.985937 C239.973716,170.995464 251.935742,182.802773 266.964344,184.170312 C265.401284,169.160786 253.439258,157.353477 238.410656,155.985937 L238.410656,155.985937 Z" id="Shape"></path>
                <polygon id="Rectangle" transform="translate(252.688909, 170.079023) rotate(-45.000000) translate(-252.688909, -170.079023) " points="247.829534 142.589538 257.548284 142.589538 257.548284 197.568507 247.829534 197.568507"></polygon>
                <rect id="Rectangle" x="77.75" y="286.703125" width="199.234375" height="9.71875"></rect>
                <rect id="Rectangle" x="58.3125" y="286.703125" width="9.71875" height="9.71875"></rect>
                <rect id="Rectangle" x="34.015625" y="286.703125" width="14.578125" height="9.71875"></rect>
            </g>
        </g>
    </g>
</svg>