<?xml version="1.0" encoding="UTF-8"?>
<svg width="600px" height="600px" viewBox="0 0 600 600" version="1.1" xmlns="http://www.w3.org/2000/svg" xmlns:xlink="http://www.w3.org/1999/xlink">
    <title>volcanoes</title>
    <defs>
        <filter id="filter-1">
            <feColorMatrix in="SourceGraphic" type="matrix" values="0 0 0 0 0.960400 0 0 0 0 0.974120 0 0 0 0 0.980000 0 0 0 1.000000 0"></feColorMatrix>
        </filter>
    </defs>
    <g id="volcanoes" stroke="none" stroke-width="1" fill="none" fill-rule="evenodd">
        <circle id="Oval" fill="#0080AB" opacity="0.42296782" cx="300" cy="300" r="240"></circle>
        <g id="Group" transform="translate(176.000000, 129.000000)">
            <polygon id="Path-2" fill="#002643" points="42 192.833333 0 322 253 322 204 172"></polygon>
            <path d="M187.78932,144.893175 L199.306569,176.554525 C195.630851,179.40817 193.221214,183.814973 193.221214,188.82 L193.262055,255.850952 C193.269481,257.33351 192.701416,258.730607 191.654393,259.785862 C190.60737,260.841116 189.226191,261.420763 187.73734,261.428194 C186.248489,261.4059 184.856171,260.867126 183.801723,259.819303 C182.747275,258.775195 182.168071,257.385529 182.160645,255.966138 L182.554207,208.906991 C182.509652,200.342338 175.533214,193.405155 166.989955,193.405155 C166.960252,193.405155 166.937975,193.405155 166.911985,193.405155 L129.423375,193.564929 C120.835562,193.605802 113.877688,200.632161 113.922242,209.22654 L113.95937,217.980693 C113.974222,221.042417 111.49404,223.543073 108.434655,223.561652 C108.427229,223.561652 108.419804,223.561652 108.408665,223.561652 C106.938378,223.561652 105.54606,222.989436 104.502751,221.949044 C103.448302,220.901221 102.865385,219.50784 102.85796,218.021566 L102.820831,209.274844 C102.798554,205.109561 101.161189,201.200661 98.2057632,198.268986 C95.2651889,195.359605 91.3778388,193.758145 87.2528665,193.758145 C87.2305894,193.758145 87.2008866,193.758145 87.1748967,193.758145 C78.5870831,193.78787 71.6292091,200.806799 71.6589118,209.408609 L71.751733,229.922904 C71.7591587,231.409178 71.1873804,232.806275 70.1440705,233.86153 C69.1007607,234.913068 67.7121562,235.496431 66.2121662,235.503862 C64.7938589,235.522441 63.3458489,234.94651 62.2914005,233.902402 C61.2332393,232.858295 60.6503224,231.461197 60.6466096,229.974923 L60.587204,218.214781 C60.5500756,209.739305 53.7110126,202.872719 45.2382972,202.724092 L66.2752846,144.893175 L101.929748,144.893175 L152.131144,144.893175 L187.78932,144.893175 L187.78932,144.893175 Z" id="Path" fill="#B50015" fill-rule="nonzero"></path>
            <path d="M106.945804,134.864542 L106.945804,117.207609 C112.329431,119.975794 118.403647,121.543813 124.793456,121.543813 C132.245139,121.543813 139.362665,119.366422 145.47401,115.554129 L147.122514,115.554129 L147.122514,134.864542 L106.945804,134.864542 Z" id="Path" fill="#B50015" fill-rule="nonzero"></path>
            <path d="M211.722327,76.9927533 C206.984736,85.7246123 197.743461,91.6659921 187.135859,91.6659921 C184.321521,91.6659921 181.533174,91.2424041 178.848786,90.4100907 C177.107461,89.8676008 175.213909,90.3209143 173.895849,91.5768157 C169.414443,95.8721472 162.801864,97.1503427 156.853884,94.3115596 C154.455385,93.1671288 151.589068,94.0923342 150.304423,96.4146372 C148.310625,100.033714 145.600247,103.099154 142.429476,105.518065 C137.435698,109.322926 131.276086,111.507748 124.793456,111.507748 C118.218005,111.507748 112.088096,109.282053 107.157436,105.518065 C101.603018,101.274753 97.5634408,95.0695593 96.1934005,87.790533 C95.8592443,85.999573 94.5708866,84.5281619 92.8407003,83.9559464 C92.3283275,83.7850249 91.7973904,83.7069955 91.2701662,83.7069955 C90.0263627,83.7069955 88.8048363,84.1677404 87.8617733,85.0409263 C82.4521562,90.0608164 75.4311637,92.8252858 68.102005,92.8252858 C56.8372292,92.8252858 47.0650176,86.3785728 42.223466,76.9853219 L110.239098,76.9853219 L110.239098,66.9566889 L39.1715063,66.9566889 C39.0526952,65.8791404 38.9747254,64.7867291 38.9747254,63.6757394 C38.9747254,60.2090055 39.613335,56.8983305 40.7271889,53.8143122 C42.0860907,50.0503236 44.1912746,46.6504721 46.8682368,43.7856792 C52.1887456,38.1043973 59.7258237,34.5299086 68.0982922,34.5299086 C70.8680756,34.5299086 73.1106348,32.2856351 73.1106348,29.5137343 C73.1106348,13.443398 86.1798539,0.364187893 102.241627,0.364187893 C116.376433,0.364187893 128.42462,10.4745659 130.886237,24.4046679 C131.146136,25.8909417 132.066922,27.1802843 133.388695,27.9122742 C134.703043,28.6442641 136.281003,28.7520189 137.680746,28.1872349 C138.995093,27.6633233 140.335431,27.395794 141.675768,27.395794 C146.977713,27.395794 151.47397,31.2080865 152.365053,36.4620647 C152.587824,37.7774171 153.32668,38.9515734 154.418257,39.7207202 C155.506121,40.4935826 156.865023,40.8019844 158.171945,40.5678963 C159.322927,40.3635336 160.124902,40.2780729 160.867471,40.2780729 C162.686766,40.2780729 164.543189,40.6459256 166.384761,41.3667685 C167.951582,41.9724251 169.718897,41.7643467 171.100076,40.794553 C175.822816,37.4615839 181.377234,35.6966336 187.139572,35.6966336 C202.55531,35.6966336 215.093592,48.2482165 215.093592,63.6757394 C215.093592,64.7867291 215.015622,65.8791404 214.885673,66.9566889 C214.458695,70.5534717 213.370831,73.9421762 211.722327,76.9927533 Z" id="Path" fill="#4A6370" fill-rule="nonzero"></path>
        </g>
        <g filter="url(#filter-1)" id="volcano-outline">
            <g transform="translate(141.000000, 119.000000)" id="Group" fill="#000000" fill-rule="nonzero">
                <path d="M318.916156,52.8196012 L254.850992,52.8196012 C248.052771,42.5048605 236.383295,35.6717163 223.135859,35.6717163 C216.155708,35.6717163 209.416892,37.5667155 203.487476,41.1746454 C201.322887,40.5689888 199.128594,40.2605869 196.941728,40.2531556 C193.503632,31.9225905 184.756166,26.5199849 175.477763,27.486063 C170.354035,11.4788933 155.446957,0.33555491 138.241627,0.33555491 C118.24795,0.33555491 101.714645,15.4026563 99.3718388,34.7836677 C87.0377632,36.2736573 76.4710025,43.5452522 70.4079244,53.7856792 L34.5121259,53.7856792 L34.5121259,63.8143122 L66.238398,63.8143122 C65.4178589,66.9726442 64.9500403,70.2647408 64.9500403,73.6757394 C64.9500403,74.7830134 65.0280101,75.871709 65.1171184,76.9566889 L10.9281259,76.9566889 L10.9281259,86.9853219 L67.326262,86.9853219 C72.7878589,102.048708 87.1899899,112.853919 104.098292,112.853919 C111.368045,112.853919 118.407602,110.840018 124.518947,107.079745 C126.490469,111.962154 129.419904,116.30579 133.039929,119.947161 C133.01394,120.147808 132.921118,120.326161 132.921118,120.530523 L132.921118,144.857111 L98.7740705,144.857111 C96.6688866,144.857111 94.7864736,146.172463 94.0624685,148.156639 L31.0034861,321.515624 L0.376216625,321.515624 L0.376216625,331.544257 L70.4561914,331.544257 L70.4561914,321.515624 L41.6742065,321.515624 L58.2483526,275.946467 L99.8842116,275.946467 L107.67005,295.710194 C108.423758,297.627487 110.272756,298.883389 112.333385,298.883389 L149.317048,298.883389 L149.317048,288.854756 L115.741778,288.854756 L110.658892,275.942751 L130.23673,275.942751 L130.23673,265.914118 L103.296317,265.914118 L61.8980806,265.914118 L77.5997078,222.763872 L80.9969622,222.722999 C81.0043879,222.722999 81.0118136,222.722999 81.0192393,222.722999 C84.071199,222.722999 86.5625189,225.201361 86.5773703,228.255654 L86.633063,240.015796 C86.6516272,244.184794 88.2889924,248.09741 91.2518438,251.029085 C94.2072695,253.960761 98.1317481,255.42474 102.271572,255.52878 C106.437385,255.513917 110.3433,253.879016 113.272736,250.921331 C116.202171,247.963646 117.806121,244.039882 117.787557,239.8746 L117.691023,219.36402 C117.683597,216.298581 120.163778,213.797925 123.226877,213.783062 C124.827113,213.913111 126.104332,214.351562 127.162494,215.391954 C128.213229,216.436061 128.796146,217.829443 128.803572,219.315717 L128.844413,228.062438 C128.859264,232.224005 130.49663,236.132905 133.448343,239.064581 C136.388917,241.981393 140.27998,243.586569 144.419804,243.586569 C144.442081,243.586569 144.464358,243.586569 144.490348,243.586569 C153.078161,243.545696 160.036035,236.523052 159.998907,227.932389 L159.954353,219.178236 C159.939501,216.112796 162.419683,213.608425 165.479068,213.589846 L202.967678,213.430072 C205.986222,213.430072 208.525809,215.893571 208.54066,218.884697 L208.147098,265.940128 C208.165662,270.105411 209.803028,274.014311 212.762166,276.945986 C215.699028,279.855367 219.586378,281.453112 223.71135,281.453112 C223.741053,281.453112 223.767043,281.453112 223.78932,281.453112 C227.951421,281.438249 231.853622,279.799632 234.783058,276.841947 C237.712494,273.884262 239.31273,269.960499 239.294166,265.821226 L239.249612,198.812568 C239.249612,198.429853 239.294166,198.054569 239.36471,197.694147 L284.405249,321.511908 L215.24606,321.511908 L197.168212,304.282278 L197.168212,250.163331 L187.139814,250.163331 L187.139814,264.576472 L161.361521,264.576472 L161.361521,274.605105 L187.139814,274.605105 L187.139814,306.43366 C187.139814,307.804747 187.704166,309.1201 188.699209,310.067599 L200.706554,321.515624 L86.7147456,321.515624 L86.7147456,331.544257 L318.916156,331.544257 L318.916156,321.515624 L295.064831,321.515624 L244.800317,183.32931 L244.800317,183.232703 C244.789179,183.232703 244.774327,183.236418 244.766902,183.236418 L232.002136,148.16407 C231.285557,146.18361 229.399431,144.864542 227.294247,144.864542 L193.147199,144.864542 L193.147199,120.537955 C193.147199,119.003377 192.419481,117.676877 191.331617,116.755388 C191.810574,116.157162 192.322947,115.592378 192.764776,114.968143 C200.327844,117.089799 208.455264,115.414026 214.607451,110.724831 C217.399511,111.371361 220.25469,111.694625 223.135859,111.694625 C239.398126,111.694625 253.261894,101.398463 258.667798,86.9927533 L289.250514,86.9927533 L289.250514,76.9641203 L260.951199,76.9641203 C261.04402,75.8828561 261.118277,74.7904448 261.118277,73.6831707 C261.118277,69.9154665 260.546499,66.2889582 259.521753,62.8519499 L318.912443,62.8519499 L318.912443,52.8196012 L318.916156,52.8196012 Z M247.722327,86.9927533 C242.984736,95.7246123 233.743461,101.665992 223.135859,101.665992 C220.321521,101.665992 217.533174,101.242404 214.848786,100.410091 C213.107461,99.8676008 211.213909,100.320914 209.895849,101.576816 C205.414443,105.872147 198.801864,107.150343 192.853884,104.31156 C190.455385,103.167129 187.589068,104.092334 186.304423,106.414637 C184.310625,110.033714 181.600247,113.099154 178.429476,115.518065 C173.435698,119.322926 167.276086,121.507748 160.793456,121.507748 C154.218005,121.507748 148.088096,119.282053 143.157436,115.518065 C137.603018,111.274753 133.563441,105.069559 132.193401,97.790533 C131.859244,95.999573 130.570887,94.5281619 128.8407,93.9559464 C128.328327,93.7850249 127.79739,93.7069955 127.270166,93.7069955 C126.026363,93.7069955 124.804836,94.1677404 123.861773,95.0409263 C118.452156,100.060816 111.431164,102.825286 104.102005,102.825286 C92.8372292,102.825286 83.0650176,96.3785728 78.223466,86.9853219 L146.239098,86.9853219 L146.239098,76.9566889 L75.1715063,76.9566889 C75.0526952,75.8791404 74.9747254,74.7867291 74.9747254,73.6757394 C74.9747254,70.2090055 75.613335,66.8983305 76.7271889,63.8143122 C78.0860907,60.0503236 80.1912746,56.6504721 82.8682368,53.7856792 C88.1887456,48.1043973 95.7258237,44.5299086 104.098292,44.5299086 C106.868076,44.5299086 109.110635,42.2856351 109.110635,39.5137343 C109.110635,23.443398 122.179854,10.3641879 138.241627,10.3641879 C152.376433,10.3641879 164.42462,20.4745659 166.886237,34.4046679 C167.146136,35.8909417 168.066922,37.1802843 169.388695,37.9122742 C170.703043,38.6442641 172.281003,38.7520189 173.680746,38.1872349 C174.995093,37.6633233 176.335431,37.395794 177.675768,37.395794 C182.977713,37.395794 187.47397,41.2080865 188.365053,46.4620647 C188.587824,47.7774171 189.32668,48.9515734 190.418257,49.7207202 C191.506121,50.4935826 192.865023,50.8019844 194.171945,50.5678963 C195.322927,50.3635336 196.124902,50.2780729 196.867471,50.2780729 C198.686766,50.2780729 200.543189,50.6459256 202.384761,51.3667685 C203.951582,51.9724251 205.718897,51.7643467 207.100076,50.794553 C211.822816,47.4615839 217.377234,45.6966336 223.139572,45.6966336 C238.55531,45.6966336 251.093592,58.2482165 251.093592,73.6757394 C251.093592,74.7867291 251.015622,75.8791404 250.885673,76.9566889 C250.458695,80.5534717 249.370831,83.9421762 247.722327,86.9927533 Z M223.78932,154.893175 L235.306569,186.554525 C231.630851,189.40817 229.221214,193.814973 229.221214,198.82 L229.262055,265.850952 C229.269481,267.33351 228.701416,268.730607 227.654393,269.785862 C226.60737,270.841116 225.226191,271.420763 223.73734,271.428194 C222.248489,271.4059 220.856171,270.867126 219.801723,269.819303 C218.747275,268.775195 218.168071,267.385529 218.160645,265.966138 L218.554207,218.906991 C218.509652,210.342338 211.533214,203.405155 202.989955,203.405155 C202.960252,203.405155 202.937975,203.405155 202.911985,203.405155 L165.423375,203.564929 C156.835562,203.605802 149.877688,210.632161 149.922242,219.22654 L149.95937,227.980693 C149.974222,231.042417 147.49404,233.543073 144.434655,233.561652 C144.427229,233.561652 144.419804,233.561652 144.408665,233.561652 C142.938378,233.561652 141.54606,232.989436 140.502751,231.949044 C139.448302,230.901221 138.865385,229.50784 138.85796,228.021566 L138.820831,219.274844 C138.798554,215.109561 137.161189,211.200661 134.205763,208.268986 C131.265189,205.359605 127.377839,203.758145 123.252866,203.758145 C123.230589,203.758145 123.200887,203.758145 123.174897,203.758145 C114.587083,203.78787 107.629209,210.806799 107.658912,219.408609 L107.751733,239.922904 C107.759159,241.409178 107.18738,242.806275 106.144071,243.86153 C105.100761,244.913068 103.712156,245.496431 102.212166,245.503862 C100.793859,245.522441 99.3458489,244.94651 98.2914005,243.902402 C97.2332393,242.858295 96.6503224,241.461197 96.6466096,239.974923 L96.587204,228.214781 C96.5500756,219.739305 89.7110126,212.872719 81.2382972,212.724092 L102.275285,154.893175 L137.929748,154.893175 L188.131144,154.893175 L223.78932,154.893175 L223.78932,154.893175 Z M142.945804,144.864542 L142.945804,127.207609 C148.329431,129.975794 154.403647,131.543813 160.793456,131.543813 C168.245139,131.543813 175.362665,129.366422 181.47401,125.554129 L183.122514,125.554129 L183.122514,144.864542 L142.945804,144.864542 Z" id="Shape"></path>
                <rect id="Rectangle" x="42.2496977" y="129.336696" width="10.0246851" height="11.7452793"></rect>
                <rect id="Rectangle" x="73.1368665" y="120.660572" width="10.0246851" height="11.7378479"></rect>
                <rect id="Rectangle" x="243.474831" y="126.613099" width="10.0246851" height="11.7415636"></rect>
                <rect id="Rectangle" x="199.537008" y="126.613099" width="10.0246851" height="11.7415636"></rect>
                <rect id="Rectangle" x="270.374403" y="176.503598" width="10.0246851" height="11.7452793"></rect>
                <rect id="Rectangle" x="266.464776" y="31.2649143" width="10.0209723" height="11.7415636"></rect>
                <rect id="Rectangle" x="22.0072594" y="101.034326" width="10.0246851" height="11.7415636"></rect>
                <rect id="Rectangle" x="60.6282872" y="18.7987921" width="10.0246851" height="11.7415636"></rect>
            </g>
        </g>
    </g>
</svg>